<?xml version="1.0" encoding="UTF-8"?>
<!DOCTYPE svg PUBLIC "-//W3C//DTD SVG 1.1//EN" "http://www.w3.org/Graphics/SVG/1.1/DTD/svg11.dtd">
<svg xmlns="http://www.w3.org/2000/svg" version="1.1" width="300px" height="159px" style="shape-rendering:geometricPrecision; text-rendering:geometricPrecision; image-rendering:optimizeQuality; fill-rule:evenodd; clip-rule:evenodd" xmlns:xlink="http://www.w3.org/1999/xlink">
<g><path style="opacity:0.907" fill="#2a3890" d="M 1.5,-0.5 C 11.8333,-0.5 22.1667,-0.5 32.5,-0.5C 45.6591,14.4685 58.8257,29.4685 72,44.5C 72.6667,30.8333 72.6667,17.1667 72,3.5C 70.3732,2.46773 69.2066,1.1344 68.5,-0.5C 77.5,-0.5 86.5,-0.5 95.5,-0.5C 96.6016,1.0919 95.935,1.92524 93.5,2C 92.8742,2.75044 92.3742,3.58377 92,4.5C 91.5,32.1647 91.3334,59.8313 91.5,87.5C 87.4862,87.6655 83.4862,87.4988 79.5,87C 61.4312,66.9893 43.2645,47.1559 25,27.5C 24.3333,46.1667 24.3333,64.8333 25,83.5C 26.586,84.376 28.086,85.376 29.5,86.5C 19.8505,87.6655 10.1839,87.8321 0.5,87C 1.72865,85.4708 3.22865,84.3041 5,83.5C 5.66667,56.8333 5.66667,30.1667 5,3.5C 3.82891,2.10679 2.32891,1.27346 0.5,1C 1.05596,0.617425 1.38929,0.117425 1.5,-0.5 Z"/></g>
<g><path style="opacity:0.868" fill="#2a3890" d="M 143.5,-0.5 C 153.167,-0.5 162.833,-0.5 172.5,-0.5C 179.173,3.76908 186.506,5.26908 194.5,4C 195.883,2.72917 196.883,1.22917 197.5,-0.5C 198.167,-0.5 198.833,-0.5 199.5,-0.5C 199.5,9.83333 199.5,20.1667 199.5,30.5C 198.5,30.5 197.5,30.5 196.5,30.5C 194.541,26.0188 191.541,22.1854 187.5,19C 169.209,8.23202 153.042,10.732 139,26.5C 127.815,47.282 132.648,63.1154 153.5,74C 165.006,79.0296 176.006,78.0296 186.5,71C 190.314,68.0202 193.981,64.8535 197.5,61.5C 198.661,65.7953 198.828,70.1287 198,74.5C 185.77,86.8003 170.937,91.967 153.5,90C 116.058,84.9119 101.558,64.0786 110,27.5C 114.012,19.4858 119.512,12.6525 126.5,7C 132.257,4.44954 137.923,1.94954 143.5,-0.5 Z"/></g>
<g><path style="opacity:0.89" fill="#2a3990" d="M 216.5,-0.5 C 234.167,-0.5 251.833,-0.5 269.5,-0.5C 274.848,1.33076 280.181,3.49742 285.5,6C 296.666,15.3239 297.333,25.3239 287.5,36C 284.339,37.4131 281.339,39.0797 278.5,41C 288.373,43.6743 294.873,49.841 298,59.5C 299.384,73.5555 293.217,82.3888 279.5,86C 258.525,87.7494 237.525,87.9161 216.5,86.5C 217.914,85.376 219.414,84.376 221,83.5C 221.667,57.1667 221.667,30.8333 221,4.5C 219.807,2.50287 218.307,0.836207 216.5,-0.5 Z M 245.5,13.5 C 253.545,13.0017 261.045,14.6684 268,18.5C 272.031,25.1604 270.864,30.6604 264.5,35C 258.231,36.2573 251.898,36.7573 245.5,36.5C 245.5,28.8333 245.5,21.1667 245.5,13.5 Z M 245.5,45.5 C 251.232,45.2832 256.899,45.7832 262.5,47C 272.06,50.2769 274.893,56.4436 271,65.5C 269.062,68.1059 266.562,69.9392 263.5,71C 257.509,71.4995 251.509,71.6662 245.5,71.5C 245.5,62.8333 245.5,54.1667 245.5,45.5 Z"/></g>
<g><path style="opacity:0.91" fill="#f79523" d="M -0.5,92.5 C 99.5,92.5 199.5,92.5 299.5,92.5C 299.5,103.833 299.5,115.167 299.5,126.5C 199.5,126.5 99.5,126.5 -0.5,126.5C -0.5,115.167 -0.5,103.833 -0.5,92.5 Z"/></g>
<g><path style="opacity:1" fill="#fbb96e" d="M 24.5,101.5 C 23.8333,100.167 23.1667,100.167 22.5,101.5C 19.8481,100.706 20.0148,100.04 23,99.5C 23.8333,99.8333 24.6667,100.167 25.5,100.5C 25.3764,101.107 25.0431,101.44 24.5,101.5 Z"/></g>
<g><path style="opacity:1" fill="#fcc68b" d="M 125.5,100.5 C 127.833,99.1667 130.167,99.1667 132.5,100.5C 131.833,100.5 131.5,100.833 131.5,101.5C 130.5,101.5 129.5,101.5 128.5,101.5C 127.791,100.596 126.791,100.263 125.5,100.5 Z"/></g>
<g><path style="opacity:1" fill="#ffecd8" d="M 180.5,99.5 C 181.5,99.5 182.5,99.5 183.5,99.5C 183.5,100.833 183.5,102.167 183.5,103.5C 182.167,103.5 180.833,103.5 179.5,103.5C 179.433,102.041 179.766,100.708 180.5,99.5 Z"/></g>
<g><path style="opacity:1" fill="#fff3e8" d="M 21.5,109.5 C 23.6037,112.003 23.9371,114.67 22.5,117.5C 19.2467,112.741 15.4134,108.408 11,104.5C 10.3333,108.167 10.3333,111.833 11,115.5C 11.5,116 12,116.5 12.5,117C 11.1667,117.667 9.83333,117.667 8.5,117C 9.83333,111.667 9.83333,106.333 8.5,101C 10.5,100.333 12.5,100.333 14.5,101C 17.1999,103.588 19.5332,106.421 21.5,109.5 Z"/></g>
<g><path style="opacity:1" fill="#ffead5" d="M 52.5,99.5 C 53.5,99.5 54.5,99.5 55.5,99.5C 55.5,100.833 55.5,102.167 55.5,103.5C 54.1667,103.5 52.8333,103.5 51.5,103.5C 51.4326,102.041 51.7659,100.708 52.5,99.5 Z"/></g>
<g><path style="opacity:1" fill="#fff8f1" d="M 107.5,100.5 C 107.5,106.167 107.5,111.833 107.5,117.5C 105.585,117.784 103.919,117.451 102.5,116.5C 103.488,111.36 103.821,106.026 103.5,100.5C 104.833,100.5 106.167,100.5 107.5,100.5 Z"/></g>
<g><path style="opacity:1" fill="#ffe8d0" d="M 131.5,101.5 C 131.5,100.833 131.833,100.5 132.5,100.5C 133.833,100.5 135.167,100.5 136.5,100.5C 136.66,102.199 136.494,103.866 136,105.5C 134.951,103.616 133.451,102.282 131.5,101.5 Z"/></g>
<g><path style="opacity:1" fill="#f9ac54" d="M 107.5,100.5 C 106.167,100.5 104.833,100.5 103.5,100.5C 103.821,106.026 103.488,111.36 102.5,116.5C 102.5,110.833 102.5,105.167 102.5,99.5C 104.415,99.2155 106.081,99.5489 107.5,100.5 Z"/></g>
<g><path style="opacity:1" fill="#ffefe0" d="M 125.5,100.5 C 126.791,100.263 127.791,100.596 128.5,101.5C 127.21,102.058 126.377,103.058 126,104.5C 125.333,107.5 125.333,110.5 126,113.5C 129.188,117.281 132.521,117.281 136,113.5C 136.09,115.768 134.923,117.268 132.5,118C 123.253,118.411 119.42,113.911 121,104.5C 122.371,102.959 123.871,101.625 125.5,100.5 Z"/></g>
<g><path style="opacity:1" fill="#fff3e7" d="M 207.5,101.5 C 211.566,100.178 215.733,100.178 220,101.5C 220.896,104.025 220.396,106.192 218.5,108C 221.978,110.706 222.311,113.706 219.5,117C 215.459,117.827 211.459,117.66 207.5,116.5C 208.804,111.37 208.804,106.37 207.5,101.5 Z"/></g>
<g><path style="opacity:1" fill="#f89c35" d="M 213.5,101.5 C 216.599,102.533 217.266,104.533 215.5,107.5C 213.692,106.082 213.025,104.082 213.5,101.5 Z"/></g>
<g><path style="opacity:1" fill="#fff4e8" d="M 45.5,101.5 C 46.2066,103.231 47.2066,104.897 48.5,106.5C 46.2808,109.82 45.9474,113.32 47.5,117C 45.8659,117.494 44.1992,117.66 42.5,117.5C 42.7592,113.76 42.4259,110.094 41.5,106.5C 42.8569,104.814 44.1902,103.148 45.5,101.5 Z"/></g>
<g><path style="opacity:1" fill="#fffbf7" d="M 191.5,105.5 C 191.237,109.6 191.57,113.6 192.5,117.5C 190.901,117.768 189.568,117.434 188.5,116.5C 188.5,112.5 188.5,108.5 188.5,104.5C 190.81,100.214 191.81,100.548 191.5,105.5 Z"/></g>
<g><path style="opacity:1" fill="#fed6ac" d="M 273.5,106.5 C 271.89,109.203 270.89,112.203 270.5,115.5C 270.737,114.209 270.404,113.209 269.5,112.5C 269.5,112.167 269.5,111.833 269.5,111.5C 270.666,109.834 270.666,108.167 269.5,106.5C 268.571,107.689 268.238,109.022 268.5,110.5C 267.167,110.5 265.833,110.5 264.5,110.5C 264.297,108.61 264.963,107.11 266.5,106C 269.039,105.204 271.372,105.371 273.5,106.5 Z"/></g>
<g><path style="opacity:1" fill="#fff2e4" d="M 36.5,106.5 C 37.1174,106.611 37.6174,106.944 38,107.5C 38.2117,110.758 38.7117,113.924 39.5,117C 35.8484,117.499 32.1817,117.665 28.5,117.5C 28.366,115.708 28.6993,114.042 29.5,112.5C 30.766,111.91 32.0993,111.41 33.5,111C 33.9147,108.974 34.9147,107.474 36.5,106.5 Z"/></g>
<g><path style="opacity:1" fill="#fffefe" d="M 81.5,107.5 C 82.209,106.596 83.209,106.263 84.5,106.5C 84.8204,109.898 84.487,113.232 83.5,116.5C 82.8326,113.358 82.166,110.358 81.5,107.5 Z"/></g>
<g><path style="opacity:1" fill="#fff1e3" d="M 97.5,106.5 C 98.1174,106.611 98.6174,106.944 99,107.5C 99.2117,110.758 99.7117,113.924 100.5,117C 99.8921,117.87 99.0588,118.37 98,118.5C 95.2305,117.652 92.3971,117.319 89.5,117.5C 89.366,115.708 89.6993,114.042 90.5,112.5C 93.6994,111.352 96.0327,109.352 97.5,106.5 Z"/></g>
<g><path style="opacity:1" fill="#fffdfc" d="M 183.5,106.5 C 183.5,109.833 183.5,113.167 183.5,116.5C 182.5,116.5 181.5,116.5 180.5,116.5C 180.5,113.167 180.5,109.833 180.5,106.5C 181.5,106.5 182.5,106.5 183.5,106.5 Z"/></g>
<g><path style="opacity:1" fill="#fffaf6" d="M 230.5,115.5 C 230.611,116.117 230.944,116.617 231.5,117C 229.613,117.78 227.946,117.613 226.5,116.5C 226.5,113.167 226.5,109.833 226.5,106.5C 227.5,106.5 228.5,106.5 229.5,106.5C 229.19,109.713 229.523,112.713 230.5,115.5 Z"/></g>
<g><path style="opacity:1" fill="#fff3e7" d="M 232.5,106.5 C 233.833,106.5 235.167,106.5 236.5,106.5C 236.19,109.713 236.523,112.713 237.5,115.5C 236.448,117.256 234.781,117.923 232.5,117.5C 232.5,113.833 232.5,110.167 232.5,106.5 Z"/></g>
<g><path style="opacity:1" fill="#fab96f" d="M 232.5,106.5 C 233.919,105.549 235.585,105.216 237.5,105.5C 237.5,108.833 237.5,112.167 237.5,115.5C 236.523,112.713 236.19,109.713 236.5,106.5C 235.167,106.5 233.833,106.5 232.5,106.5 Z"/></g>
<g><path style="opacity:1" fill="#fff6ed" d="M 248.5,106.5 C 248.646,108.942 247.813,109.609 246,108.5C 245.502,111.482 245.335,114.482 245.5,117.5C 243.585,117.784 241.919,117.451 240.5,116.5C 241.479,113.375 241.813,110.042 241.5,106.5C 243.833,107.833 246.167,107.833 248.5,106.5 Z"/></g>
<g><path style="opacity:1" fill="#fff9f3" d="M 273.5,106.5 C 274.198,109.897 274.865,113.397 275.5,117C 271.848,117.499 268.182,117.665 264.5,117.5C 263.976,113.69 265.643,111.69 269.5,111.5C 269.5,111.833 269.5,112.167 269.5,112.5C 268.115,113.947 268.448,114.947 270.5,115.5C 270.89,112.203 271.89,109.203 273.5,106.5 Z"/></g>
<g><path style="opacity:1" fill="#fff2e4" d="M 282.5,106.5 C 283.198,109.897 283.865,113.397 284.5,117C 282.613,117.78 280.946,117.613 279.5,116.5C 279.5,113.167 279.5,109.833 279.5,106.5C 280.5,106.5 281.5,106.5 282.5,106.5 Z"/></g>
<g><path style="opacity:1" fill="#fffbf8" d="M 286.5,106.5 C 287.5,106.5 288.5,106.5 289.5,106.5C 289.5,109.5 289.5,112.5 289.5,115.5C 288.791,116.404 287.791,116.737 286.5,116.5C 286.5,113.167 286.5,109.833 286.5,106.5 Z"/></g>
<g><path style="opacity:1" fill="#fbba71" d="M 290.5,115.5 C 290.167,115.5 289.833,115.5 289.5,115.5C 289.5,112.5 289.5,109.5 289.5,106.5C 288.5,106.5 287.5,106.5 286.5,106.5C 285.833,106.5 285.5,106.833 285.5,107.5C 284.957,107.44 284.624,107.107 284.5,106.5C 286.396,105.534 288.396,105.201 290.5,105.5C 290.5,108.833 290.5,112.167 290.5,115.5 Z"/></g>
<g><path style="opacity:1" fill="#fef1e3" d="M 29.5,106.5 C 30.5862,106.62 31.2528,107.287 31.5,108.5C 31.2528,109.713 30.5862,110.38 29.5,110.5C 28.3143,109.295 28.3143,107.961 29.5,106.5 Z"/></g>
<g><path style="opacity:1" fill="#fff9f3" d="M 56.5,116.5 C 55.9032,117.139 55.0698,117.472 54,117.5C 52.6244,117.316 51.7911,116.649 51.5,115.5C 52.4767,112.713 52.81,109.713 52.5,106.5C 53.5,106.5 54.5,106.5 55.5,106.5C 55.1872,110.042 55.5206,113.375 56.5,116.5 Z"/></g>
<g><path style="opacity:1" fill="#fff4e9" d="M 62.5,106.5 C 63.1982,109.897 63.8648,113.397 64.5,117C 64.2716,117.399 63.9382,117.565 63.5,117.5C 60.7133,116.622 59.38,114.622 59.5,111.5C 59.2858,109.058 60.2858,107.392 62.5,106.5 Z"/></g>
<g><path style="opacity:1" fill="#fff4e9" d="M 68.5,106.5 C 72.7549,110.565 72.4216,114.231 67.5,117.5C 67.6476,114.15 67.3143,110.65 66.5,107C 67.0944,106.536 67.7611,106.369 68.5,106.5 Z"/></g>
<g><path style="opacity:1" fill="#ffeedc" d="M 153.5,105.5 C 158.206,104.881 160.873,106.881 161.5,111.5C 159.167,111.5 156.833,111.5 154.5,111.5C 154.33,112.822 154.663,113.989 155.5,115C 157.424,115.179 159.091,115.346 160.5,115.5C 154.939,120.267 151.605,118.933 150.5,111.5C 150.628,109.045 151.628,107.045 153.5,105.5 Z"/></g>
<g><path style="opacity:1" fill="#fff0e2" d="M 175.5,117.5 C 173.901,117.768 172.568,117.434 171.5,116.5C 172.5,116.5 173.5,116.5 174.5,116.5C 174.827,111.456 174.494,106.456 173.5,101.5C 172.833,106.317 172.166,110.983 171.5,115.5C 171.5,112.833 171.5,110.167 171.5,107.5C 170.5,107.5 169.5,107.5 168.5,107.5C 167.989,111.03 168.656,114.196 170.5,117C 169.207,117.49 167.873,117.657 166.5,117.5C 165.883,117.389 165.383,117.056 165,116.5C 164.333,113.5 164.333,110.5 165,107.5C 166.789,105.771 168.956,105.104 171.5,105.5C 171.5,103.833 171.5,102.167 171.5,100.5C 172.833,100.5 174.167,100.5 175.5,100.5C 175.58,106.475 175.58,112.142 175.5,117.5 Z"/></g>
<g><path style="opacity:1" fill="#fffefe" d="M 171.5,116.5 C 171.5,116.167 171.5,115.833 171.5,115.5C 172.166,110.983 172.833,106.317 173.5,101.5C 174.494,106.456 174.827,111.456 174.5,116.5C 173.5,116.5 172.5,116.5 171.5,116.5 Z"/></g>
<g><path style="opacity:1" fill="#feddbb" d="M 183.5,106.5 C 182.5,106.5 181.5,106.5 180.5,106.5C 180.5,109.833 180.5,113.167 180.5,116.5C 181.5,116.5 182.5,116.5 183.5,116.5C 183.101,117.521 181.767,117.854 179.5,117.5C 179.5,113.5 179.5,109.5 179.5,105.5C 181.099,105.232 182.432,105.566 183.5,106.5 Z"/></g>
<g><path style="opacity:1" fill="#fcc486" d="M 213.5,101.5 C 213.025,104.082 213.692,106.082 215.5,107.5C 215.5,108.167 215.5,108.833 215.5,109.5C 213.656,111.279 212.99,113.612 213.5,116.5C 212.167,111.5 212.167,106.5 213.5,101.5 Z"/></g>
<g><path style="opacity:1" fill="#ffefdf" d="M 253.5,106.5 C 254.492,106.328 255.158,106.662 255.5,107.5C 254.167,109.5 254.167,111.5 255.5,113.5C 255.611,114.117 255.944,114.617 256.5,115C 263.148,114.612 263.148,115.779 256.5,118.5C 250.119,115.647 249.119,111.647 253.5,106.5 Z"/></g>
<g><path style="opacity:1" fill="#ffe0c0" d="M 253.5,106.5 C 258.599,104.141 261.266,105.807 261.5,111.5C 258.918,111.025 256.918,111.692 255.5,113.5C 254.167,111.5 254.167,109.5 255.5,107.5C 255.158,106.662 254.492,106.328 253.5,106.5 Z"/></g>
<g><path style="opacity:1" fill="#f79b31" d="M 255.5,107.5 C 256.117,107.389 256.617,107.056 257,106.5C 257.781,107.944 257.614,109.277 256.5,110.5C 255.614,109.675 255.281,108.675 255.5,107.5 Z"/></g>
<g><path style="opacity:1" fill="#fcca93" d="M 282.5,106.5 C 281.5,106.5 280.5,106.5 279.5,106.5C 279.5,109.833 279.5,113.167 279.5,116.5C 278.518,113.038 278.185,109.371 278.5,105.5C 280.099,105.232 281.432,105.566 282.5,106.5 Z"/></g>
<g><path style="opacity:1" fill="#fcca93" d="M 56.5,116.5 C 55.5206,113.375 55.1872,110.042 55.5,106.5C 54.5,106.5 53.5,106.5 52.5,106.5C 52.81,109.713 52.4767,112.713 51.5,115.5C 51.5,112.167 51.5,108.833 51.5,105.5C 53.1667,105.5 54.8333,105.5 56.5,105.5C 56.5,109.167 56.5,112.833 56.5,116.5 Z"/></g>
<g><path style="opacity:1" fill="#ffe0bf" d="M 84.5,106.5 C 83.209,106.263 82.209,106.596 81.5,107.5C 79.5977,110.337 78.931,113.671 79.5,117.5C 77.5853,117.784 75.9187,117.451 74.5,116.5C 74.5,112.833 74.5,109.167 74.5,105.5C 77.9786,106.314 81.3119,106.647 84.5,106.5 Z"/></g>
<g><path style="opacity:1" fill="#fffefd" d="M 75.5,106.5 C 76.7773,107.694 77.4439,109.36 77.5,111.5C 77.1667,113.167 76.8333,114.833 76.5,116.5C 75.513,113.232 75.1796,109.898 75.5,106.5 Z"/></g>
<g><path style="opacity:1" fill="#fff1e3" d="M 90.5,106.5 C 91.5862,106.62 92.2528,107.287 92.5,108.5C 92.2528,109.713 91.5862,110.38 90.5,110.5C 89.3143,109.295 89.3143,107.961 90.5,106.5 Z"/></g>
<g><path style="opacity:1" fill="#f8a23f" d="M 155.5,106.5 C 157.104,107.287 157.771,108.62 157.5,110.5C 156.5,110.5 155.5,110.5 154.5,110.5C 154.433,109.041 154.766,107.708 155.5,106.5 Z"/></g>
<g><path style="opacity:1" fill="#fdd6ab" d="M 188.5,104.5 C 188.5,108.5 188.5,112.5 188.5,116.5C 187.764,113.305 187.097,109.971 186.5,106.5C 186.855,105.478 187.522,104.811 188.5,104.5 Z"/></g>
<g><path style="opacity:1" fill="#fcbc78" d="M 191.5,105.5 C 192.376,105.369 193.043,105.702 193.5,106.5C 191.839,109.977 192.172,113.144 194.5,116C 193.956,116.717 193.289,117.217 192.5,117.5C 191.57,113.6 191.237,109.6 191.5,105.5 Z"/></g>
<g><path style="opacity:1" fill="#fcc78d" d="M 230.5,115.5 C 229.523,112.713 229.19,109.713 229.5,106.5C 228.5,106.5 227.5,106.5 226.5,106.5C 226.5,109.833 226.5,113.167 226.5,116.5C 225.518,113.038 225.185,109.371 225.5,105.5C 227.167,105.5 228.833,105.5 230.5,105.5C 230.5,108.833 230.5,112.167 230.5,115.5 Z"/></g>
<g><path style="opacity:1" fill="#fbc384" d="M 248.5,106.5 C 246.167,107.833 243.833,107.833 241.5,106.5C 241.813,110.042 241.479,113.375 240.5,116.5C 240.5,112.833 240.5,109.167 240.5,105.5C 243.385,105.194 246.052,105.527 248.5,106.5 Z"/></g>
<g><path style="opacity:1" fill="#fde0c0" d="M 286.5,106.5 C 286.5,109.833 286.5,113.167 286.5,116.5C 287.791,116.737 288.791,116.404 289.5,115.5C 289.833,115.5 290.167,115.5 290.5,115.5C 289.448,117.256 287.781,117.923 285.5,117.5C 285.5,114.167 285.5,110.833 285.5,107.5C 285.5,106.833 285.833,106.5 286.5,106.5 Z"/></g>
<g><path style="opacity:1" fill="#faa84d" d="M 62.5,106.5 C 64.5,105.167 66.5,105.167 68.5,106.5C 67.7611,106.369 67.0944,106.536 66.5,107C 67.3143,110.65 67.6476,114.15 67.5,117.5C 66.1667,118.833 64.8333,118.833 63.5,117.5C 63.9382,117.565 64.2716,117.399 64.5,117C 63.8648,113.397 63.1982,109.897 62.5,106.5 Z"/></g>
<g><path style="opacity:1" fill="#fde4c9" d="M 84.5,106.5 C 85.2302,110.061 85.8969,113.727 86.5,117.5C 84.8333,117.5 83.1667,117.5 81.5,117.5C 81.5,114.167 81.5,110.833 81.5,107.5C 82.166,110.358 82.8326,113.358 83.5,116.5C 84.487,113.232 84.8204,109.898 84.5,106.5 Z"/></g>
<g><path style="opacity:1" fill="#ffe5ca" d="M 140.5,107.5 C 139.957,107.44 139.624,107.107 139.5,106.5C 140.333,106.167 141.167,105.833 142,105.5C 144.123,106.583 146.29,106.583 148.5,105.5C 148.895,108.523 147.895,109.523 145.5,108.5C 144.217,111.372 144.217,114.205 145.5,117C 143.5,117.667 141.5,117.667 139.5,117C 140.451,113.943 140.784,110.777 140.5,107.5 Z"/></g>
<g><path style="opacity:1" fill="#fffefe" d="M 140.5,107.5 C 141.209,106.596 142.209,106.263 143.5,106.5C 143.82,109.898 143.487,113.232 142.5,116.5C 141.833,113.358 141.166,110.358 140.5,107.5 Z"/></g>
<g><path style="opacity:1" fill="#f9a649" d="M 171.5,115.5 C 171.5,115.833 171.5,116.167 171.5,116.5C 172.568,117.434 173.901,117.768 175.5,117.5C 172.5,118.833 169.5,118.833 166.5,117.5C 167.873,117.657 169.207,117.49 170.5,117C 168.656,114.196 167.989,111.03 168.5,107.5C 169.5,107.5 170.5,107.5 171.5,107.5C 171.5,110.167 171.5,112.833 171.5,115.5 Z"/></g>
<g><path style="opacity:1" fill="#fdcf9d" d="M 24.5,101.5 C 24.8288,107.206 24.4954,112.872 23.5,118.5C 22.8933,118.376 22.56,118.043 22.5,117.5C 23.9371,114.67 23.6037,112.003 21.5,109.5C 22.4731,107.052 22.8064,104.385 22.5,101.5C 23.1667,100.167 23.8333,100.167 24.5,101.5 Z"/></g>
<g><path style="opacity:1" fill="#f79625" d="M 215.5,109.5 C 216.622,111.288 216.789,113.288 216,115.5C 215.329,116.252 214.496,116.586 213.5,116.5C 212.99,113.612 213.656,111.279 215.5,109.5 Z"/></g>
<g><path style="opacity:1" fill="#fbb05e" d="M 29.5,106.5 C 31.8333,105.167 34.1667,105.167 36.5,106.5C 34.9147,107.474 33.9147,108.974 33.5,111C 32.0993,111.41 30.766,111.91 29.5,112.5C 29.5,111.833 29.5,111.167 29.5,110.5C 30.5862,110.38 31.2528,109.713 31.5,108.5C 31.2528,107.287 30.5862,106.62 29.5,106.5 Z"/></g>
<g><path style="opacity:1" fill="#fbb262" d="M 90.5,106.5 C 92.8333,105.167 95.1667,105.167 97.5,106.5C 96.0327,109.352 93.6994,111.352 90.5,112.5C 90.5,111.833 90.5,111.167 90.5,110.5C 91.5862,110.38 92.2528,109.713 92.5,108.5C 92.2528,107.287 91.5862,106.62 90.5,106.5 Z"/></g>
<g><path style="opacity:1" fill="#f89f3a" d="M 32.5,112.5 C 34.4646,112.948 34.7979,113.948 33.5,115.5C 32.6143,114.675 32.281,113.675 32.5,112.5 Z"/></g>
<g><path style="opacity:1" fill="#f89f39" d="M 93.5,112.5 C 95.4646,112.948 95.7979,113.948 94.5,115.5C 93.6143,114.675 93.281,113.675 93.5,112.5 Z"/></g>
<g><path style="opacity:1" fill="#f89f3a" d="M 269.5,112.5 C 270.404,113.209 270.737,114.209 270.5,115.5C 268.448,114.947 268.115,113.947 269.5,112.5 Z"/></g>
<g><path style="opacity:1" fill="#f9a547" d="M 81.5,107.5 C 81.5,110.833 81.5,114.167 81.5,117.5C 83.1667,117.5 84.8333,117.5 86.5,117.5C 82.3171,118.811 77.9838,118.811 73.5,117.5C 73.6236,116.893 73.9569,116.56 74.5,116.5C 75.9187,117.451 77.5853,117.784 79.5,117.5C 78.931,113.671 79.5977,110.337 81.5,107.5 Z"/></g>
<g><path style="opacity:0.429" fill="#2a3890" d="M -0.5,151.5 C -0.5,147.833 -0.5,144.167 -0.5,140.5C 0.801633,139.193 2.13497,139.193 3.5,140.5C 4.32364,143.785 4.82364,147.118 5,150.5C 5.41395,150.957 5.91395,151.291 6.5,151.5C 7.48922,147.893 7.82256,144.226 7.5,140.5C 8.83333,140.5 10.1667,140.5 11.5,140.5C 11.4302,136.628 13.2635,134.295 17,133.5C 19.4675,134.104 21.4675,135.438 23,137.5C 23.2834,142.717 23.1168,148.05 22.5,153.5C 16.4462,155.188 15.1129,153.354 18.5,148C 18.3552,147.228 18.0219,146.561 17.5,146C 15.8925,146.019 14.2259,146.185 12.5,146.5C 13.8238,152.009 11.6571,154.676 6,154.5C 3.35115,154.348 1.18448,153.348 -0.5,151.5 Z M 14.5,140.5 C 14.2172,141.289 13.7172,141.956 13,142.5C 12.4719,141.184 12.9719,140.517 14.5,140.5 Z"/></g>
<g><path style="opacity:0.453" fill="#2a3890" d="M 238.5,133.5 C 241.155,134.001 243.322,135.334 245,137.5C 245.252,142.638 245.418,147.971 245.5,153.5C 243.833,153.5 242.167,153.5 240.5,153.5C 240.541,149.757 239.874,149.59 238.5,153C 236.527,153.495 234.527,153.662 232.5,153.5C 232.334,149.486 232.501,145.486 233,141.5C 234.688,140.675 234.855,139.675 233.5,138.5C 234.245,135.754 235.912,134.088 238.5,133.5 Z M 236.5,140.5 C 237.601,139.402 238.934,139.235 240.5,140C 239.436,141.511 238.103,141.677 236.5,140.5 Z"/></g>
<g><path style="opacity:0.452" fill="#2a3890" d="M 32.5,134.5 C 33.8333,134.5 35.1667,134.5 36.5,134.5C 36.8333,138.5 37.1667,138.5 37.5,134.5C 39.9477,134.085 41.2811,135.085 41.5,137.5C 40.1667,139.167 38.8333,140.833 37.5,142.5C 38.0372,143.741 38.7039,144.908 39.5,146C 38.139,147.927 37.3057,150.094 37,152.5C 33.5254,155.109 30.0254,155.109 26.5,152.5C 25.7419,149.198 25.0752,145.865 24.5,142.5C 27.1559,138.488 29.1559,138.821 30.5,143.5C 31.5,143.5 32.5,143.5 33.5,143.5C 33.6795,141.046 33.0128,138.879 31.5,137C 31.7432,136.098 32.0766,135.265 32.5,134.5 Z M 30.5,148.5 C 33.6741,148.952 34.0075,149.952 31.5,151.5C 30.6143,150.675 30.281,149.675 30.5,148.5 Z"/></g>
<g><path style="opacity:0.457" fill="#2a3890" d="M 70.5,134.5 C 71.6491,134.791 72.3158,135.624 72.5,137C 71.7966,142.143 71.2966,147.309 71,152.5C 67.7182,154.818 64.2182,155.151 60.5,153.5C 60.2605,149.158 59.9272,144.824 59.5,140.5C 62.9103,140.616 64.2436,138.95 63.5,135.5C 65.7659,135.141 67.5993,135.808 69,137.5C 69.5133,136.473 70.0133,135.473 70.5,134.5 Z"/></g>
<g><path style="opacity:0.461" fill="#2a3890" d="M 147.5,134.5 C 151.013,133.876 153.847,134.876 156,137.5C 156.499,142.823 156.666,148.156 156.5,153.5C 155.167,153.5 153.833,153.5 152.5,153.5C 152.813,145.705 151.813,145.538 149.5,153C 147.231,153.758 145.064,153.591 143,152.5C 140.464,155.313 138.297,155.146 136.5,152C 139.876,146.605 138.543,144.771 132.5,146.5C 132.5,148.833 132.5,151.167 132.5,153.5C 130.833,153.5 129.167,153.5 127.5,153.5C 126.948,147.031 125.948,147.031 124.5,153.5C 116.762,152.31 108.929,152.31 101,153.5C 100.788,150.242 100.288,147.076 99.5,144C 103.216,139.19 107.383,138.69 112,142.5C 113.401,140.808 115.234,140.141 117.5,140.5C 117.163,144.308 117.663,147.974 119,151.5C 117.623,141.867 121.456,138.367 130.5,141C 131.5,144.333 132.5,144.333 133.5,141C 135.167,140.833 136.833,140.667 138.5,140.5C 140.641,140.613 142.475,141.28 144,142.5C 144.983,139.73 146.149,137.063 147.5,134.5 Z M 105.5,147.5 C 106.573,148.251 106.74,149.251 106,150.5C 104.272,149.648 104.105,148.648 105.5,147.5 Z"/></g>
<g><path style="opacity:0.442" fill="#2a3890" d="M 257.5,134.5 C 259.167,134.5 260.833,134.5 262.5,134.5C 263.145,137.547 262.145,139.713 259.5,141C 261.138,144.057 262.471,144.057 263.5,141C 266.669,140.022 269.503,140.522 272,142.5C 272.499,146.152 272.665,149.818 272.5,153.5C 271.167,153.5 269.833,153.5 268.5,153.5C 269.12,149.698 268.286,146.365 266,143.5C 262.358,145.805 260.858,149.138 261.5,153.5C 259.712,153.785 258.045,153.452 256.5,152.5C 254.712,150.419 252.879,148.419 251,146.5C 250.257,144.559 250.424,142.726 251.5,141C 253.979,140.106 256.312,139.773 258.5,140C 256.365,138.444 256.032,136.611 257.5,134.5 Z"/></g>
<g><path style="opacity:0.454" fill="#2a3890" d="M 278.5,134.5 C 281.448,134.223 284.281,134.556 287,135.5C 287.757,138.476 286.591,140.309 283.5,141C 285.312,144.922 285.979,149.089 285.5,153.5C 283.833,153.5 282.167,153.5 280.5,153.5C 280.5,150.167 280.5,146.833 280.5,143.5C 279.448,143.351 278.448,143.517 277.5,144C 277.781,147.017 277.781,150.183 277.5,153.5C 276.167,153.5 274.833,153.5 273.5,153.5C 273.334,149.486 273.501,145.486 274,141.5C 275.011,140.663 276.178,140.33 277.5,140.5C 277.325,138.379 277.659,136.379 278.5,134.5 Z"/></g>
<g><path style="opacity:0.473" fill="#2a3890" d="M 194.5,135.5 C 195.833,135.5 197.167,135.5 198.5,135.5C 197.632,138.935 197.632,142.269 198.5,145.5C 199.833,145.5 201.167,145.5 202.5,145.5C 202.5,143.833 202.5,142.167 202.5,140.5C 206.731,141.621 210.731,141.621 214.5,140.5C 215.386,139.675 215.719,138.675 215.5,137.5C 219.162,136.637 221.328,137.97 222,141.5C 224.737,140.39 227.571,140.223 230.5,141C 231.464,145.066 231.797,149.233 231.5,153.5C 229.833,153.5 228.167,153.5 226.5,153.5C 226.665,150.15 226.498,146.817 226,143.5C 222.286,145.511 220.453,148.677 220.5,153C 217.233,154.82 213.9,154.986 210.5,153.5C 209.368,143.031 208.701,143.031 208.5,153.5C 206.801,153.66 205.134,153.494 203.5,153C 200.454,145.774 198.788,145.941 198.5,153.5C 196.833,153.5 195.167,153.5 193.5,153.5C 193.662,151.473 193.495,149.473 193,147.5C 192.727,152.273 190.227,154.273 185.5,153.5C 185.064,149.089 185.064,144.756 185.5,140.5C 189.17,139.651 191.003,141.318 191,145.5C 193.014,142.47 194.181,139.137 194.5,135.5 Z"/></g>
<g><path style="opacity:0.501" fill="#2a3890" d="M 42.5,139.5 C 43.8068,140.153 45.1401,140.82 46.5,141.5C 48.2492,139.469 50.2492,139.135 52.5,140.5C 53.4922,144.783 53.8256,149.116 53.5,153.5C 51.8333,153.5 50.1667,153.5 48.5,153.5C 48.5489,148.461 47.8823,148.295 46.5,153C 44.8659,153.494 43.1992,153.66 41.5,153.5C 41.6198,149.958 41.2865,146.458 40.5,143C 40.8618,141.566 41.5285,140.399 42.5,139.5 Z"/></g>
<g><path style="opacity:0.472" fill="#2a3890" d="M 77.5,139.5 C 79.7463,139.936 81.9129,140.603 84,141.5C 84.4988,145.486 84.6655,149.486 84.5,153.5C 74.0565,156.642 70.2231,152.976 73,142.5C 74.4087,141.219 75.9087,140.219 77.5,139.5 Z M 76.5,144.5 C 77.5417,143.209 78.7083,143.209 80,144.5C 80.8141,146.902 80.6474,149.235 79.5,151.5C 77.2267,150.309 76.8934,148.642 78.5,146.5C 78.2528,145.287 77.5862,144.62 76.5,144.5 Z"/></g>
<g><path style="opacity:0.518" fill="#2a3890" d="M 99.5,158.5 C 97.1667,158.5 94.8333,158.5 92.5,158.5C 91.8519,156.914 91.3519,155.247 91,153.5C 87.8838,155.024 86.0505,154.024 85.5,150.5C 85.3898,148.626 86.0564,147.126 87.5,146C 86.2404,144.186 86.2404,142.353 87.5,140.5C 88.5,139.167 89.5,139.167 90.5,140.5C 92.6051,149.57 93.9384,149.57 94.5,140.5C 95.8333,140.5 97.1667,140.5 98.5,140.5C 98.502,146.523 98.8354,152.523 99.5,158.5 Z"/></g>
<g><path style="opacity:0.494" fill="#2a3890" d="M 299.5,142.5 C 299.5,146.167 299.5,149.833 299.5,153.5C 297.833,153.5 296.167,153.5 294.5,153.5C 294.657,152.127 294.49,150.793 294,149.5C 292.682,152.941 290.182,154.275 286.5,153.5C 286.203,149.233 286.536,145.066 287.5,141C 291.86,138.847 295.86,139.347 299.5,142.5 Z"/></g>
<g><path style="opacity:0.517" fill="#2a3890" d="M 159.5,140.5 C 163.043,141.263 166.543,141.596 170,141.5C 170.499,145.486 170.666,149.486 170.5,153.5C 169.167,153.5 167.833,153.5 166.5,153.5C 166.657,152.127 166.49,150.793 166,149.5C 164.323,153.051 161.49,154.384 157.5,153.5C 156.975,148.86 157.642,144.527 159.5,140.5 Z"/></g>
<g><path style="opacity:0.47" fill="#2a3890" d="M 171.5,140.5 C 173.167,140.5 174.833,140.5 176.5,140.5C 176.833,152.5 177.167,152.5 177.5,140.5C 179.167,140.5 180.833,140.5 182.5,140.5C 182.32,144.215 182.654,147.882 183.5,151.5C 182.109,154.792 180.276,155.125 178,152.5C 175.888,154.922 173.888,154.922 172,152.5C 171.501,148.514 171.334,144.514 171.5,140.5 Z"/></g>
</svg>
