<svg width="500" height="500" viewBox="0 0 500 500" fill="none" xmlns="http://www.w3.org/2000/svg">
<path d="M121.923 256.82C122.753 248.214 129.897 241.066 138.179 238.489C146.461 235.912 155.557 237.305 163.628 240.498C171.699 243.691 178.94 248.586 186.246 253.254C207.937 267.096 231.905 279.528 257.664 280.014C269.054 280.241 280.428 278.101 291.802 278.685C303.176 279.268 315.266 283.255 321.596 292.689C325.046 297.843 326.445 304.067 329.114 309.642C336.371 324.781 352.122 333.76 367.271 341.07C372.348 343.517 377.588 345.981 381.542 350.001C385.496 354.02 387.937 360.033 386.147 365.366C384.894 369.078 381.835 371.898 378.613 374.118C366.962 382.125 351.39 384.167 338.047 379.451C327.828 375.836 318.7 368.51 307.863 367.959C299.776 367.554 292.03 371.055 283.975 371.881C274.522 372.854 265.068 370.115 256.281 366.5C243.247 361.136 230.473 353.242 223.688 340.94C221.296 336.596 219.734 331.864 217.602 327.39C208.718 308.718 190.868 296.141 173.782 284.422C171.097 282.591 167.42 280.695 164.946 283.547C164.442 284.131 164.116 284.828 163.889 285.557C161.611 293.029 163.173 300.955 162.961 308.702C162.733 316.936 159.609 326.223 151.066 328.444C150.839 328.444 150.627 328.428 150.415 328.428C143.402 326.207 148.479 320.923 151.603 319.14C152.563 318.589 154.207 320.712 154.662 319.708C157.803 312.787 156.241 304.78 155.574 297.211C154.907 289.641 155.753 280.873 161.887 276.351C167.501 272.202 175.474 273.287 181.885 276.043C201.981 284.714 212.835 305.979 223.297 325.137C227.235 332.35 231.417 339.579 237.194 345.43C252.164 360.617 275.319 364.28 296.684 363.745C303.876 363.567 311.101 362.999 318.228 364.021C326.917 365.269 335.118 368.818 343.726 370.601C353.115 372.546 363.887 371.995 370.64 364.815C371.974 363.388 372.95 361.654 373.308 359.742C374.708 352.399 367.076 347.569 360.616 344.441C338.421 333.695 315.657 320.178 304.95 298.053C303.339 294.715 301.875 291.035 298.815 288.896C296.537 287.324 293.706 286.837 290.956 286.465C268.908 283.547 245.883 285.897 224.941 278.425C217.342 275.719 210.231 271.78 202.534 269.333C197.344 267.679 191.876 266.707 187.011 264.26C180.99 261.229 176.288 256.139 170.642 252.476C163.319 247.743 154.549 245.539 145.843 245.037C138.602 244.632 129.815 246.414 127.358 253.206C126.984 254.259 126.74 255.442 125.877 256.172C125.015 256.901 123.306 256.593 123.274 255.475" fill="#30373E"/>
<path d="M303.827 321.782C307.326 318.768 311.947 317.422 316.438 316.32C318.391 315.834 320.376 315.38 322.377 315.461C324.379 315.542 326.445 316.223 327.796 317.698C329.309 319.351 329.716 321.798 329.244 323.987C328.772 326.175 327.503 328.12 326.022 329.789C324.232 331.799 322.052 333.501 319.562 334.538C314.99 336.434 309.799 335.932 304.869 335.397C304.397 335.348 303.876 335.284 303.518 334.976C303.014 334.554 302.932 333.841 302.883 333.193C302.639 329.206 302.997 325.186 303.941 321.312" fill="#977DFF"/>
<path d="M194.22 191.809C194.236 185.342 198.271 179.572 202.86 175.002C208.653 169.215 215.585 164.58 223.151 161.419C226.259 160.122 229.514 159.069 232.882 158.988C236.25 158.907 239.732 159.912 242.124 162.278C244.37 164.482 245.427 167.659 245.753 170.787C246.469 177.66 243.768 184.807 238.675 189.508C235.176 192.749 230.75 194.775 226.389 196.753C225.543 197.142 194.22 191.809 194.22 191.809Z" fill="#977DFF"/>
<path d="M348.055 214.079C356.548 199.443 374.025 194.5 389.564 200.675C401.703 205.505 412.898 218.18 411.499 231.892C411.238 234.42 414.525 235.555 416.25 236.673C418.789 238.326 421.148 240.239 423.28 242.378C423.996 243.092 424.728 243.967 424.614 244.972C424.5 245.912 423.654 246.609 422.775 246.933C412.996 250.661 400.434 246.463 390.931 243.61C378.939 240.028 367.044 236.106 355.263 231.859C348.266 229.347 341.416 226.673 335.167 222.572C333.703 221.6 332.271 220.579 330.904 219.476C329.618 218.439 328.3 217.207 328.04 215.57C326.901 208.536 345.256 212.863 348.282 214.079" fill="#E4E3FF"/>
<path d="M348.542 214.144C352.236 207.823 358.029 202.847 364.961 200.367C371.828 197.903 379.394 197.887 386.358 200.01C393.778 202.279 400.434 206.964 405.087 213.139C407.431 216.235 409.269 219.719 410.262 223.48C410.75 225.327 411.043 227.24 411.075 229.153C411.092 230.125 410.994 231.081 410.945 232.054C410.913 232.767 411.124 233.448 411.564 234.031C412.491 235.279 414.021 235.928 415.322 236.673C417.226 237.775 418.984 239.169 420.643 240.612C421.538 241.39 422.45 242.184 423.214 243.075C423.881 243.837 424.451 244.874 423.751 245.798C423.165 246.593 422.043 246.852 421.131 247.111C420.123 247.403 419.098 247.63 418.056 247.776C413.744 248.375 409.367 247.905 405.12 247.063C400.824 246.204 396.642 244.939 392.46 243.675C382.779 240.758 373.146 237.694 363.578 234.388C358.859 232.751 354.124 231.114 349.47 229.282C345.076 227.548 340.748 225.571 336.729 223.075C334.679 221.794 332.661 220.4 330.822 218.828C329.618 217.791 328.349 216.381 328.512 214.679C328.674 212.928 330.546 212.41 332.043 212.215C334.467 211.891 336.957 212.134 339.365 212.491C341.643 212.815 343.905 213.269 346.102 213.885C346.736 214.063 347.355 214.241 347.973 214.484C348.412 214.663 349.177 214.03 348.575 213.787C346.866 213.107 345.011 212.718 343.205 212.345C340.618 211.81 337.998 211.405 335.362 211.324C333.231 211.259 330.708 211.291 328.87 212.523C328.17 212.993 327.649 213.69 327.487 214.533C327.21 216.089 328.089 217.58 329.163 218.65C330.839 220.335 332.905 221.729 334.907 223.026C336.941 224.355 339.056 225.538 341.236 226.624C345.662 228.828 350.3 230.595 354.954 232.265C364.945 235.863 375.017 239.234 385.171 242.362C389.694 243.756 394.201 245.166 398.774 246.414C403.151 247.597 407.642 248.586 412.198 248.797C414.379 248.894 416.575 248.813 418.74 248.44C419.813 248.262 420.887 248.003 421.929 247.662C422.873 247.354 423.816 247.03 424.5 246.268C426.225 244.372 424.028 242.411 422.677 241.13C420.904 239.461 418.967 237.937 416.933 236.576C415.615 235.701 414.004 235.117 412.882 233.983C412.345 233.448 411.97 232.767 412.019 231.989C412.068 231 412.166 230.012 412.149 229.023C412.068 225.036 410.962 221.146 409.139 217.596C405.51 210.465 399.164 204.694 391.956 201.258C385.089 197.984 377.181 196.915 369.696 198.341C362.357 199.735 355.604 203.641 350.82 209.379C349.6 210.837 348.526 212.41 347.566 214.047C347.436 214.274 347.68 214.452 347.892 214.484C348.136 214.5 348.412 214.371 348.542 214.144Z" fill="#E4E3FF"/>
<path d="M345.044 239.38C346.378 243.983 348.689 248.618 351.471 252.508C357.232 260.547 365.953 264.211 375.765 263.108C383.283 262.266 390.54 260.126 396.87 255.944C388.523 254.259 380.175 252.8 372.072 250.158C363.936 247.484 356.076 244.096 348.25 240.628C347.273 240.19 346.297 239.769 345.337 239.331" fill="#E4E3FF"/>
<path d="M344.523 239.51C345.874 244.129 348.038 248.521 350.821 252.46C353.066 255.637 355.93 258.392 359.331 260.321C362.618 262.185 366.312 263.255 370.087 263.546C374.399 263.87 378.808 263.173 383.007 262.169C388.051 260.953 392.9 258.976 397.244 256.123C397.44 255.993 397.537 255.685 397.228 255.62C390.329 254.227 383.381 252.979 376.579 251.082C369.81 249.186 363.22 246.593 356.76 243.837C353.082 242.281 349.438 240.644 345.793 239.023C345.565 238.926 345.272 238.959 345.06 239.104C344.93 239.202 344.751 239.461 344.979 239.574C351.439 242.443 357.899 245.328 364.505 247.857C367.809 249.121 371.144 250.304 374.545 251.309C377.946 252.314 381.412 253.141 384.878 253.886C388.783 254.729 392.705 255.458 396.61 256.253C396.61 256.091 396.594 255.912 396.594 255.75C392.851 258.214 388.685 259.997 384.357 261.18C382.177 261.78 379.964 262.217 377.734 262.541C375.733 262.833 373.715 263.028 371.681 262.947C368.004 262.817 364.343 261.942 361.072 260.256C357.736 258.538 354.856 256.026 352.578 253.06C349.438 248.959 347.062 244.178 345.614 239.234C345.435 238.829 344.41 239.104 344.523 239.51Z" fill="#E4E3FF"/>
<path d="M420.579 343.436C420.562 342.399 420.904 341.378 421.539 340.551C421.799 341.216 422.043 341.897 422.303 342.561C422.368 342.707 422.417 342.869 422.547 342.966C422.694 343.08 422.873 343.08 423.052 343.08C423.8 343.096 424.549 343.128 425.297 343.145C424.533 343.987 423.703 344.992 423.898 346.111C423.996 346.694 424.386 347.261 424.191 347.829C423.101 347.618 422.092 347.099 421.262 346.354C420.611 347.245 419.83 348.056 418.968 348.736C419 347.958 419.033 347.18 419.081 346.402C419.098 346.208 419.098 346.013 419.016 345.851C418.968 345.722 418.87 345.608 418.772 345.511C418.138 344.83 417.503 344.149 416.885 343.469C418.056 343.453 419.228 343.566 420.383 343.809" fill="#E4E3FF"/>
<path d="M421.099 343.404C421.099 342.431 421.392 341.507 421.978 340.713C421.652 340.713 421.343 340.697 421.018 340.697C421.213 341.216 421.408 341.718 421.604 342.237C421.75 342.61 421.848 343.063 422.206 343.307C422.58 343.55 423.101 343.485 423.524 343.501C424.061 343.517 424.598 343.533 425.135 343.55C425.053 343.371 424.956 343.177 424.874 342.999C424.272 343.663 423.67 344.376 423.442 345.252C423.345 345.657 423.345 346.062 423.442 346.467C423.572 346.937 423.816 347.375 423.686 347.877C423.914 347.731 424.158 347.602 424.386 347.456C423.377 347.245 422.45 346.759 421.685 346.062C421.473 345.867 421.001 345.997 420.855 346.208C420.22 347.067 419.488 347.845 418.642 348.509C418.935 348.574 419.228 348.655 419.521 348.72C419.553 348.169 419.569 347.602 419.602 347.051C419.618 346.597 419.732 346.046 419.521 345.641C419.309 345.219 418.87 344.863 418.544 344.522C418.154 344.101 417.763 343.679 417.373 343.258C417.194 343.469 417.031 343.679 416.852 343.874C417.991 343.858 419.114 343.987 420.22 344.214C420.741 344.328 421.262 343.582 420.578 343.436C419.374 343.193 418.17 343.08 416.95 343.096C416.722 343.096 416.169 343.42 416.429 343.712C416.771 344.068 417.096 344.425 417.438 344.798C417.763 345.154 418.138 345.478 418.43 345.867C418.707 346.24 418.577 346.775 418.561 347.213C418.528 347.748 418.512 348.266 418.479 348.801C418.463 349.239 419.114 349.206 419.358 349.012C420.269 348.299 421.067 347.472 421.75 346.548C421.473 346.597 421.197 346.645 420.92 346.694C421.815 347.488 422.889 348.007 424.061 348.25C424.353 348.315 424.695 348.104 424.76 347.829C424.972 347.002 424.321 346.289 424.451 345.462C424.581 344.636 425.216 343.939 425.753 343.355C425.948 343.128 425.785 342.82 425.493 342.804C425.069 342.788 424.63 342.772 424.207 342.755C423.995 342.755 423.784 342.739 423.556 342.739C423.393 342.739 423.182 342.772 423.019 342.707C422.743 342.593 422.629 341.961 422.515 341.686C422.352 341.281 422.206 340.859 422.043 340.454C421.896 340.081 421.294 340.146 421.083 340.438C420.416 341.345 420.041 342.399 420.025 343.517C420.041 344.02 421.099 343.89 421.099 343.404Z" fill="#E4E3FF"/>
<path d="M443.619 366.048C443.619 365.513 443.798 364.962 444.124 364.541C444.254 364.897 444.384 365.237 444.531 365.594C444.563 365.675 444.596 365.756 444.661 365.805C444.742 365.853 444.84 365.87 444.921 365.87C445.312 365.886 445.702 365.902 446.093 365.902C445.686 366.34 445.263 366.874 445.361 367.458C445.409 367.766 445.621 368.058 445.523 368.349C444.954 368.236 444.417 367.96 443.994 367.588C443.652 368.058 443.245 368.479 442.79 368.836C442.806 368.43 442.822 368.025 442.838 367.62C442.838 367.523 442.855 367.426 442.806 367.328C442.773 367.263 442.725 367.199 442.676 367.15C442.35 366.793 442.025 366.437 441.683 366.08C442.301 366.064 442.904 366.129 443.506 366.259" fill="#E4E3FF"/>
<path d="M444.14 365.901C444.14 365.366 444.319 364.864 444.628 364.442C444.287 364.523 443.945 364.588 443.603 364.669C443.701 364.928 443.799 365.171 443.896 365.431C443.978 365.625 444.026 365.901 444.222 365.998C444.417 366.095 444.693 366.079 444.921 366.079C445.198 366.095 445.475 366.095 445.767 366.112C445.719 366.047 445.67 365.982 445.637 365.933C445.328 366.274 445.003 366.646 444.889 367.1C444.84 367.311 444.84 367.522 444.905 367.732C444.97 367.959 445.1 368.202 445.035 368.445C445.344 368.348 445.653 368.251 445.979 368.154C445.426 368.04 444.938 367.781 444.514 367.408C444.401 367.311 444.108 367.392 443.977 367.424C443.815 367.473 443.62 367.538 443.506 367.684C443.18 368.138 442.79 368.527 442.35 368.867C442.676 368.802 443.017 368.753 443.343 368.689C443.359 368.397 443.375 368.105 443.375 367.813C443.392 367.586 443.457 367.295 443.31 367.084C443.164 366.873 442.969 366.695 442.79 366.517C442.594 366.306 442.399 366.095 442.204 365.885C441.927 366.014 441.651 366.144 441.374 366.274C441.96 366.274 442.546 366.322 443.115 366.436C443.359 366.484 443.636 366.42 443.847 366.306C443.929 366.257 444.205 366.079 443.977 366.03C443.343 365.901 442.708 365.836 442.057 365.836C441.944 365.836 441.016 365.998 441.228 366.225C441.407 366.419 441.569 366.598 441.748 366.792C441.927 366.987 442.155 367.165 442.285 367.392C442.399 367.586 442.334 367.894 442.318 368.121C442.302 368.397 442.285 368.672 442.285 368.948C442.285 369.078 442.676 369.013 442.708 369.013C442.904 368.98 443.115 368.899 443.278 368.786C443.75 368.413 444.157 367.975 444.514 367.489C444.189 367.57 443.847 367.668 443.522 367.749C443.977 368.154 444.514 368.413 445.117 368.543C445.296 368.575 445.491 368.543 445.653 368.478C445.751 368.446 446.011 368.364 446.044 368.235C446.158 367.797 445.816 367.408 445.898 366.971C445.963 366.533 446.288 366.16 446.581 365.836C446.695 365.723 446.565 365.658 446.451 365.658C446.223 365.658 445.995 365.642 445.784 365.642C445.67 365.642 445.556 365.641 445.442 365.625C445.361 365.625 445.23 365.642 445.165 365.593C445.084 365.544 445.068 365.415 445.035 365.334C444.986 365.22 444.954 365.123 444.905 365.009C444.824 364.799 444.742 364.572 444.661 364.361C444.612 364.215 444.27 364.296 444.173 364.312C443.977 364.361 443.766 364.426 443.636 364.588C443.294 365.042 443.131 365.577 443.131 366.144C443.099 366.355 444.14 366.209 444.14 365.901Z" fill="#E4E3FF"/>
<path d="M415.176 388.414C415.16 386.793 415.697 385.172 416.673 383.892C417.08 384.945 417.471 385.982 417.877 387.036C417.975 387.279 418.073 387.522 418.268 387.668C418.496 387.83 418.789 387.846 419.065 387.863C420.237 387.895 421.408 387.944 422.58 387.976C421.376 389.289 420.09 390.877 420.4 392.628C420.562 393.535 421.164 394.443 420.871 395.318C419.179 394.978 417.568 394.168 416.299 393.017C415.29 394.427 414.07 395.675 412.703 396.745C412.752 395.529 412.817 394.313 412.866 393.082C412.882 392.79 412.898 392.482 412.768 392.206C412.687 391.996 412.524 391.834 412.377 391.671C411.385 390.602 410.409 389.548 409.416 388.478C411.255 388.446 413.093 388.624 414.9 389.013" fill="#E4E3FF"/>
<path d="M415.697 388.365C415.697 386.809 416.169 385.285 417.113 384.037C416.803 384.037 416.478 384.037 416.169 384.037C416.462 384.815 416.755 385.577 417.048 386.355C417.259 386.906 417.406 387.668 417.926 388.008C418.479 388.365 419.309 388.251 419.928 388.268C420.758 388.3 421.571 388.316 422.401 388.349C422.32 388.187 422.238 388.008 422.157 387.846C421.246 388.851 420.302 389.953 419.944 391.299C419.781 391.931 419.814 392.579 419.993 393.195C420.204 393.908 420.562 394.605 420.351 395.351C420.579 395.221 420.823 395.075 421.05 394.945C419.423 394.605 417.926 393.811 416.69 392.709C416.494 392.53 416.006 392.66 415.86 392.855C414.867 394.232 413.696 395.448 412.361 396.501C412.654 396.566 412.931 396.615 413.224 396.68C413.256 395.804 413.305 394.945 413.338 394.07C413.37 393.389 413.549 392.547 413.224 391.914C413.045 391.59 412.752 391.331 412.508 391.055C412.231 390.764 411.954 390.456 411.678 390.164C411.092 389.532 410.49 388.884 409.904 388.251C409.725 388.446 409.546 388.64 409.383 388.835C411.141 388.819 412.898 388.981 414.607 389.337C414.851 389.386 415.16 389.354 415.339 389.143C415.469 388.981 415.453 388.721 415.209 388.673C413.321 388.284 411.417 388.089 409.481 388.122C409.27 388.122 408.7 388.43 408.96 388.705C409.514 389.305 410.067 389.905 410.62 390.488C411.125 391.039 411.694 391.558 412.15 392.141C412.573 392.709 412.345 393.681 412.312 394.329C412.28 395.14 412.231 395.95 412.199 396.761C412.182 397.182 412.833 397.117 413.061 396.939C414.46 395.837 415.697 394.556 416.755 393.13C416.478 393.179 416.201 393.227 415.925 393.276C417.292 394.492 418.935 395.286 420.709 395.659C420.985 395.723 421.343 395.529 421.408 395.253C421.604 394.589 421.392 393.957 421.181 393.325C420.969 392.709 420.823 392.109 420.953 391.444C421.197 390.132 422.157 389.046 423.036 388.089C423.231 387.862 423.068 387.603 422.792 387.587C422.092 387.571 421.376 387.538 420.676 387.522C420.351 387.506 420.025 387.506 419.7 387.49C419.423 387.473 419 387.538 418.756 387.392C418.512 387.263 418.447 386.955 418.349 386.712C418.219 386.388 418.089 386.047 417.975 385.723C417.715 385.058 417.471 384.394 417.21 383.746C417.08 383.389 416.445 383.486 416.266 383.746C415.241 385.107 414.672 386.744 414.672 388.446C414.656 388.981 415.697 388.803 415.697 388.365Z" fill="#E4E3FF"/>
<path d="M85.9947 100.136C89.3956 94.2686 96.4088 92.2912 102.641 94.7549C107.506 96.6836 111.997 101.773 111.428 107.268C111.33 108.289 112.648 108.742 113.332 109.18C114.357 109.845 115.3 110.606 116.147 111.465C116.44 111.757 116.732 112.098 116.684 112.503C116.635 112.876 116.293 113.151 115.951 113.297C112.03 114.788 106.986 113.102 103.178 111.968C98.3614 110.525 93.5937 108.953 88.8749 107.251C86.0761 106.246 83.3261 105.177 80.8203 103.523C80.2345 103.134 79.6649 102.729 79.1117 102.275C78.591 101.854 78.0703 101.368 77.9564 100.703C77.5171 97.9154 84.872 99.6497 86.0924 100.152" fill="#E4E3FF"/>
<path d="M86.483 100.185C87.9312 97.7211 90.1767 95.7761 92.8942 94.8036C95.579 93.8473 98.5242 93.8635 101.242 94.7063C104.187 95.614 106.807 97.4941 108.645 99.9578C109.557 101.19 110.273 102.551 110.647 104.042C110.842 104.772 110.94 105.517 110.956 106.263C110.956 106.911 110.744 107.624 111.135 108.208C111.477 108.71 112.079 109.002 112.599 109.294C113.299 109.683 113.966 110.185 114.585 110.704C114.926 110.979 115.252 111.287 115.561 111.595C115.821 111.855 116.309 112.276 116.114 112.697C115.968 113.022 115.431 113.119 115.122 113.2C114.715 113.313 114.292 113.394 113.885 113.443C110.517 113.848 107.116 112.73 103.927 111.774C100.086 110.623 96.2624 109.407 92.4711 108.094C88.875 106.846 85.165 105.663 81.9106 103.686C81.1295 103.199 80.3648 102.681 79.6488 102.113C79.1281 101.708 78.4935 101.173 78.4772 100.46C78.461 99.7957 79.0305 99.666 79.6 99.585C81.3899 99.3581 83.3263 99.7633 85.0511 100.25C85.2952 100.314 85.5555 100.395 85.7833 100.493C86.2064 100.655 86.9874 100.055 86.3854 99.8119C85.6694 99.5202 84.8884 99.3743 84.1236 99.2122C83.0822 99.0015 82.0082 98.8394 80.9343 98.807C79.9905 98.7908 78.9003 98.8232 78.103 99.3743C77.2243 99.974 77.2731 101.06 77.9077 101.838C78.4772 102.535 79.2908 103.07 80.0068 103.572C80.8529 104.156 81.7479 104.674 82.6591 105.144C84.4327 106.068 86.304 106.798 88.1916 107.478C92.3246 108.986 96.4902 110.363 100.688 111.66C104.252 112.762 107.929 114.107 111.688 114.253C112.599 114.286 113.511 114.253 114.406 114.091C115.187 113.962 116.163 113.783 116.765 113.232C117.465 112.616 117.188 111.838 116.619 111.255C115.935 110.558 115.17 109.91 114.373 109.342C113.771 108.905 113.071 108.597 112.469 108.143C112.225 107.965 111.997 107.738 111.949 107.43C111.883 107.057 111.997 106.603 111.997 106.23C111.981 104.593 111.574 103.005 110.842 101.546C109.378 98.5963 106.807 96.2137 103.845 94.8036C98.15 92.0806 90.9578 93.199 86.841 98.1263C86.3366 98.726 85.881 99.3905 85.4904 100.071C85.3603 100.298 85.6043 100.46 85.7996 100.493C86.0762 100.541 86.3528 100.412 86.483 100.185Z" fill="#E4E3FF"/>
<path d="M84.791 110.283C85.328 112.131 86.2555 113.978 87.3783 115.55C89.6889 118.776 93.1873 120.251 97.1251 119.797C100.135 119.457 103.048 118.598 105.587 116.928C102.235 116.247 98.8988 115.664 95.6444 114.61C92.39 113.541 89.2333 112.179 86.0928 110.785C85.7022 110.607 85.3117 110.445 84.9212 110.267" fill="#E4E3FF"/>
<path d="M84.27 110.412C85.2463 113.735 87.2152 117.139 90.3232 118.873C93.3172 120.558 96.718 120.396 99.9724 119.635C102.088 119.132 104.106 118.306 105.912 117.122C106.123 116.993 106.188 116.636 105.879 116.571C102.283 115.842 98.6869 115.194 95.2048 114.01C91.8039 112.843 88.5007 111.368 85.2138 109.91C84.807 109.731 84.0097 110.315 84.6117 110.574C87.8987 112.033 91.1856 113.508 94.6027 114.675C98.0849 115.858 101.681 116.523 105.277 117.236C105.261 117.058 105.261 116.879 105.245 116.685C103.764 117.657 102.12 118.354 100.396 118.824C98.8171 119.246 97.1248 119.554 95.4814 119.489C92.4873 119.375 89.8025 117.917 88.0126 115.518C86.7922 113.897 85.8809 112.049 85.3114 110.12C85.1813 109.699 84.1398 109.975 84.27 110.412Z" fill="#E4E3FF"/>
<path d="M57.6005 148.794C57.5842 147.756 57.9259 146.735 58.5605 145.909C58.8209 146.573 59.0649 147.254 59.3253 147.919C59.3904 148.064 59.4392 148.226 59.5694 148.324C59.7158 148.437 59.8948 148.437 60.0738 148.437C60.8223 148.453 61.5708 148.486 62.3193 148.502C61.5545 149.345 60.7247 150.35 60.9199 151.468C61.0176 152.052 61.4081 152.619 61.2128 153.186C60.1226 152.975 59.1138 152.457 58.2839 151.711C57.633 152.603 56.852 153.413 55.9895 154.094C56.0221 153.316 56.0546 152.538 56.1034 151.76C56.1197 151.565 56.1197 151.371 56.0384 151.209C55.9895 151.079 55.8919 150.966 55.7943 150.868C55.1597 150.188 54.5251 149.507 53.9067 148.826C55.0783 148.81 56.2499 148.923 57.4052 149.167" fill="#E4E3FF"/>
<path d="M58.1212 148.663C58.1212 147.674 58.4466 146.718 59.0487 145.908C58.7232 145.956 58.3815 146.005 58.0561 146.054C58.2513 146.572 58.4466 147.075 58.6419 147.593C58.772 147.934 58.8697 148.404 59.2276 148.598C59.6019 148.793 60.1226 148.728 60.5294 148.744C61.0664 148.76 61.6033 148.776 62.1403 148.793C62.0427 148.695 61.9613 148.614 61.8637 148.517C61.2942 149.149 60.6758 149.862 60.4643 150.705C60.3667 151.094 60.383 151.499 60.4969 151.888C60.627 152.342 60.8548 152.78 60.7247 153.266C61.0013 153.153 61.2779 153.039 61.5708 152.926C60.5294 152.715 59.6019 152.229 58.8046 151.516C58.5768 151.305 58.0072 151.483 57.8445 151.71C57.2099 152.585 56.4614 153.347 55.6153 154.028C55.9244 154.028 56.2336 154.028 56.5428 154.028C56.5753 153.477 56.5916 152.91 56.6241 152.358C56.6404 151.921 56.7706 151.354 56.5265 150.948C56.2987 150.559 55.8919 150.219 55.5827 149.895C55.1922 149.473 54.8017 149.052 54.4111 148.631C54.1833 148.793 53.9555 148.939 53.7277 149.101C54.8668 149.084 55.9895 149.198 57.1123 149.425C57.3401 149.473 57.6655 149.392 57.8445 149.23C58.0072 149.084 57.9747 148.939 57.7632 148.906C56.5753 148.663 55.3712 148.55 54.1508 148.566C54.0044 148.566 53.207 148.76 53.4674 149.036C54.1183 149.749 54.8668 150.43 55.4526 151.175C55.7617 151.564 55.6153 152.132 55.599 152.585C55.5665 153.12 55.5502 153.639 55.5176 154.174C55.5014 154.579 56.2987 154.287 56.4451 154.174C57.3401 153.461 58.1374 152.634 58.8046 151.726C58.4791 151.791 58.17 151.856 57.8445 151.921C58.7232 152.699 59.7809 153.218 60.9199 153.461C61.1477 153.509 61.6847 153.396 61.7661 153.12C61.9939 152.277 61.3104 151.532 61.4732 150.689C61.6359 149.83 62.2542 149.133 62.8237 148.517C63.0027 148.323 62.6773 148.258 62.5471 148.242C62.124 148.225 61.6847 148.209 61.2616 148.193C60.9362 148.177 60.3179 148.274 60.0412 148.08C59.7646 147.885 59.667 147.285 59.5531 146.994C59.3904 146.588 59.2439 146.167 59.0812 145.762C58.951 145.438 58.2188 145.713 58.0886 145.908C57.4215 146.799 57.096 147.82 57.096 148.939C57.0797 149.214 58.1212 149.036 58.1212 148.663Z" fill="#E4E3FF"/>
<path d="M89.4119 166.218C89.4119 165.683 89.5909 165.132 89.9164 164.71C90.0466 165.067 90.1767 165.407 90.3232 165.764C90.3557 165.845 90.3883 165.926 90.4534 165.975C90.5347 166.023 90.6323 166.04 90.7137 166.04C91.1042 166.056 91.4948 166.072 91.8853 166.072C91.4785 166.51 91.0554 167.044 91.153 167.628C91.2019 167.936 91.4134 168.228 91.3158 168.519C90.7462 168.406 90.2093 168.13 89.7862 167.758C89.4445 168.228 89.0377 168.649 88.5821 169.006C88.5983 168.6 88.6146 168.195 88.6309 167.79C88.6309 167.693 88.6472 167.595 88.5984 167.498C88.5658 167.433 88.517 167.369 88.4682 167.32C88.1427 166.963 87.8173 166.607 87.4756 166.25C88.0939 166.234 88.696 166.299 89.298 166.429" fill="#E4E3FF"/>
<path d="M89.9164 166.087C89.9164 165.584 90.0792 165.114 90.372 164.709C90.0466 164.758 89.7049 164.806 89.3795 164.855C89.4771 165.131 89.591 165.39 89.6886 165.665C89.77 165.876 89.8188 166.135 90.0466 166.233C90.2744 166.346 90.5673 166.314 90.8277 166.314C91.1043 166.33 91.3809 166.33 91.6738 166.346C91.5762 166.265 91.4948 166.168 91.3972 166.087C91.088 166.427 90.7626 166.8 90.6487 167.254C90.5999 167.465 90.5999 167.691 90.6649 167.902C90.73 168.129 90.8439 168.356 90.7951 168.599C91.0717 168.486 91.3484 168.372 91.6413 168.275C91.1206 168.161 90.6649 167.918 90.2744 167.562C90.0466 167.367 89.4771 167.546 89.3144 167.756C88.9889 168.194 88.6147 168.599 88.1916 168.939C88.5008 168.939 88.8099 168.923 89.1191 168.923C89.1354 168.631 89.1517 168.34 89.1517 168.048C89.1679 167.805 89.233 167.497 89.1028 167.286C88.9727 167.076 88.7611 166.897 88.5984 166.703C88.3869 166.476 88.1916 166.265 87.9801 166.038C87.736 166.2 87.5082 166.346 87.2804 166.508C87.8499 166.508 88.4194 166.557 88.9889 166.67C89.2167 166.719 89.5422 166.622 89.7212 166.476C89.8839 166.33 89.8351 166.2 89.6398 166.152C89.0052 166.022 88.3543 165.957 87.7034 165.973C87.557 165.973 86.7759 166.168 87.0038 166.427C87.1827 166.622 87.3455 166.8 87.5245 166.994C87.6872 167.173 87.8987 167.351 88.0452 167.546C88.1753 167.74 88.1102 168.016 88.1102 168.226C88.094 168.502 88.0777 168.777 88.0777 169.053C88.0614 169.442 88.8588 169.15 89.0052 169.037C89.4771 168.664 89.9164 168.21 90.2744 167.724C89.949 167.789 89.6398 167.854 89.3144 167.918C89.8025 168.34 90.372 168.615 91.0067 168.745C91.2345 168.794 91.7714 168.68 91.8528 168.421C91.9667 167.983 91.625 167.594 91.7063 167.14C91.7877 166.703 92.0969 166.346 92.3898 166.038C92.5525 165.86 92.2433 165.779 92.1131 165.779C91.8853 165.779 91.6575 165.763 91.446 165.763C91.3158 165.763 91.0229 165.795 90.9253 165.73C90.8765 165.698 90.8439 165.568 90.8277 165.52C90.7788 165.406 90.7463 165.309 90.6975 165.195C90.6161 164.985 90.5348 164.758 90.4534 164.547C90.3883 164.401 90.1442 164.417 90.0141 164.434C89.8188 164.466 89.5747 164.531 89.4608 164.693C89.1028 165.179 88.9238 165.73 88.9238 166.33C88.8913 166.622 89.9164 166.443 89.9164 166.087Z" fill="#E4E3FF"/>
<path d="M61.5059 192.993C61.4896 191.372 62.0266 189.752 63.0029 188.471C63.4097 189.525 63.8002 190.562 64.207 191.616C64.3046 191.859 64.4023 192.102 64.5975 192.248C64.8253 192.41 65.1182 192.426 65.3949 192.442C66.5664 192.475 67.738 192.523 68.9096 192.556C67.7055 193.868 66.42 195.457 66.7292 197.207C66.8919 198.115 67.4939 199.023 67.201 199.898C65.5088 199.558 63.8978 198.747 62.6286 197.596C61.6198 199.006 60.3994 200.254 59.0325 201.324C59.0814 200.109 59.1464 198.893 59.1953 197.661C59.2115 197.369 59.2278 197.062 59.0976 196.786C59.0163 196.575 58.8535 196.413 58.7071 196.251C57.7145 195.181 56.7382 194.128 55.7456 193.058C57.5843 193.026 59.4231 193.204 61.2292 193.593" fill="#E4E3FF"/>
<path d="M62.0264 192.927C62.0264 191.323 62.5308 189.783 63.4909 188.486C63.1491 188.519 62.8237 188.567 62.482 188.6C62.7749 189.378 63.0678 190.14 63.3607 190.918C63.5559 191.436 63.7187 192.23 64.2394 192.538C64.8089 192.863 65.6225 192.765 66.2408 192.781C67.0707 192.814 67.8843 192.83 68.7141 192.863C68.6328 192.717 68.5677 192.571 68.4863 192.441C67.5751 193.446 66.6151 194.532 66.2734 195.877C66.1106 196.509 66.1432 197.141 66.3222 197.774C66.5337 198.487 66.8917 199.184 66.6802 199.945C66.9568 199.832 67.2334 199.702 67.51 199.589C65.8666 199.249 64.3533 198.487 63.1003 197.368C62.84 197.125 62.3193 197.287 62.1403 197.547C61.164 198.892 60.0087 200.091 58.7069 201.129C58.9835 201.177 59.2764 201.21 59.553 201.258C59.5856 200.383 59.6344 199.524 59.6669 198.649C59.6995 197.984 59.8785 197.109 59.5368 196.493C59.1788 195.861 58.4954 195.31 58.0072 194.759C57.4214 194.127 56.8194 193.478 56.2336 192.846C56.0058 193.025 55.778 193.203 55.5664 193.381C57.3726 193.365 59.1625 193.527 60.9199 193.9C61.164 193.948 61.4731 193.884 61.6521 193.705C61.7986 193.543 61.766 193.349 61.5382 193.3C59.6995 192.911 57.8282 192.733 55.9407 192.749C55.7617 192.749 54.9806 192.96 55.2735 193.284C55.8268 193.884 56.38 194.483 56.9333 195.067C57.4377 195.602 58.0072 196.137 58.4628 196.72C58.9022 197.304 58.6581 198.26 58.6255 198.941C58.593 199.751 58.5442 200.561 58.5116 201.372C58.4954 201.761 59.1788 201.647 59.3578 201.501C60.7897 200.383 62.0427 199.086 63.1166 197.612C62.7912 197.676 62.4657 197.741 62.1566 197.79C63.5071 198.989 65.118 199.816 66.8917 200.189C67.1683 200.253 67.6402 200.14 67.7216 199.832C67.9168 199.167 67.7053 198.552 67.4937 197.919C67.2822 197.287 67.1358 196.688 67.2497 196.039C67.4937 194.71 68.4538 193.624 69.3325 192.668C69.5277 192.441 69.3813 192.247 69.1047 192.247C68.405 192.23 67.689 192.198 66.9893 192.182C66.6639 192.166 66.3384 192.166 66.013 192.149C65.7201 192.133 65.297 192.198 65.0367 192.02C64.8089 191.858 64.7438 191.566 64.6462 191.323C64.516 190.999 64.3858 190.658 64.2719 190.334C64.0116 189.67 63.7675 189.005 63.5071 188.357C63.3607 187.968 62.6773 188.243 62.4983 188.47C61.5057 189.799 60.9524 191.42 60.9524 193.073C60.985 193.511 62.0264 193.316 62.0264 192.927Z" fill="#E4E3FF"/>
<path d="M152.612 100.623C152.596 99.7312 152.905 98.8235 153.442 98.1104C153.67 98.6938 153.881 99.2773 154.109 99.8608C154.158 99.9905 154.207 100.136 154.321 100.217C154.451 100.315 154.614 100.315 154.76 100.315C155.411 100.331 156.062 100.363 156.713 100.379C156.046 101.109 155.33 101.984 155.509 102.957C155.606 103.459 155.932 103.961 155.769 104.448C154.825 104.253 153.93 103.816 153.23 103.167C152.661 103.945 151.994 104.642 151.229 105.242C151.262 104.561 151.294 103.88 151.327 103.216C151.327 103.054 151.343 102.892 151.278 102.73C151.229 102.616 151.148 102.519 151.066 102.438C150.513 101.854 149.976 101.255 149.423 100.671C150.448 100.655 151.473 100.752 152.466 100.963" fill="#E4E3FF"/>
<path d="M153.133 100.59C153.133 99.7472 153.377 98.953 153.881 98.2723C153.556 98.2723 153.247 98.2561 152.921 98.2561C153.1 98.7099 153.263 99.1475 153.442 99.6014C153.572 99.9417 153.67 100.331 153.979 100.541C154.304 100.752 154.776 100.704 155.151 100.72C155.622 100.736 156.078 100.752 156.55 100.768C156.469 100.59 156.371 100.412 156.29 100.233C155.769 100.817 155.232 101.449 155.037 102.211C154.939 102.567 154.955 102.924 155.037 103.281C155.151 103.686 155.362 104.059 155.248 104.496C155.476 104.35 155.72 104.221 155.948 104.075C155.069 103.897 154.288 103.459 153.621 102.875C153.409 102.681 152.938 102.811 152.791 103.021C152.238 103.767 151.603 104.431 150.887 105.015C151.18 105.08 151.473 105.145 151.766 105.226C151.782 104.739 151.815 104.253 151.831 103.767C151.847 103.362 151.945 102.892 151.75 102.519C151.554 102.146 151.18 101.838 150.904 101.546C150.562 101.174 150.22 100.817 149.895 100.444C149.716 100.655 149.553 100.849 149.374 101.06C150.35 101.044 151.327 101.157 152.287 101.352C152.807 101.465 153.328 100.736 152.645 100.59C151.603 100.379 150.546 100.282 149.472 100.298C149.244 100.298 148.691 100.622 148.951 100.914C149.244 101.222 149.537 101.546 149.83 101.854C150.106 102.162 150.432 102.454 150.692 102.778C150.936 103.086 150.806 103.556 150.79 103.929C150.773 104.383 150.741 104.853 150.725 105.307C150.708 105.744 151.359 105.696 151.603 105.517C152.401 104.885 153.1 104.172 153.686 103.362C153.409 103.41 153.133 103.459 152.856 103.508C153.637 104.204 154.581 104.658 155.622 104.869C155.915 104.934 156.257 104.739 156.322 104.448C156.517 103.734 155.948 103.102 156.062 102.389C156.176 101.676 156.713 101.093 157.185 100.574C157.38 100.347 157.217 100.039 156.924 100.039C156.55 100.023 156.176 100.023 155.801 100.007C155.622 100.007 155.427 99.9904 155.248 99.9904C155.118 99.9904 154.923 100.023 154.809 99.9741C154.597 99.8769 154.483 99.3258 154.402 99.0989C154.272 98.7423 154.125 98.3858 153.995 98.0292C153.849 97.6564 153.247 97.7374 153.035 98.013C152.449 98.8072 152.108 99.731 152.108 100.72C152.075 101.206 153.133 101.06 153.133 100.59Z" fill="#E4E3FF"/>
<path d="M152.856 128.858C152.856 128.452 152.987 128.047 153.231 127.739C153.328 127.999 153.426 128.258 153.524 128.517C153.54 128.582 153.572 128.631 153.621 128.679C153.67 128.728 153.751 128.728 153.816 128.728C154.109 128.744 154.402 128.744 154.679 128.76C154.386 129.085 154.061 129.474 154.142 129.911C154.174 130.138 154.321 130.365 154.256 130.576C153.833 130.495 153.442 130.284 153.133 130.008C152.889 130.365 152.58 130.673 152.254 130.932C152.271 130.624 152.287 130.333 152.303 130.025C152.303 129.96 152.303 129.879 152.287 129.814C152.271 129.765 152.222 129.717 152.189 129.684C151.945 129.425 151.701 129.149 151.457 128.89C151.913 128.89 152.368 128.922 152.808 129.02" fill="#E4E3FF"/>
<path d="M153.377 128.727C153.377 128.371 153.491 128.014 153.703 127.722C153.377 127.771 153.035 127.836 152.71 127.884C152.775 128.079 152.856 128.257 152.922 128.452C152.987 128.597 153.019 128.808 153.166 128.889C153.328 128.986 153.54 128.954 153.719 128.97C153.93 128.97 154.126 128.986 154.337 128.986C154.288 128.922 154.24 128.841 154.191 128.776C153.963 129.035 153.703 129.327 153.621 129.667C153.589 129.829 153.589 129.991 153.621 130.153C153.67 130.316 153.768 130.494 153.719 130.656C154.028 130.559 154.337 130.461 154.646 130.364C154.24 130.283 153.898 130.105 153.589 129.829C153.475 129.732 153.231 129.781 153.117 129.813C152.97 129.846 152.726 129.91 152.629 130.04C152.401 130.364 152.124 130.656 151.815 130.915C152.124 130.883 152.433 130.85 152.743 130.818C152.759 130.623 152.759 130.413 152.775 130.218C152.791 130.04 152.84 129.813 152.743 129.651C152.645 129.489 152.482 129.359 152.368 129.213C152.222 129.051 152.075 128.889 151.913 128.727C151.685 128.873 151.441 129.003 151.213 129.149C151.604 129.149 151.978 129.181 152.352 129.262C152.596 129.311 152.856 129.246 153.084 129.149C153.166 129.1 153.442 128.889 153.198 128.841C152.677 128.727 152.173 128.679 151.652 128.695C151.522 128.695 150.741 128.889 150.953 129.116C151.083 129.262 151.229 129.408 151.359 129.554C151.425 129.619 151.49 129.7 151.555 129.764C151.62 129.829 151.701 129.91 151.75 129.991C151.815 130.137 151.766 130.364 151.766 130.51C151.75 130.705 151.75 130.915 151.734 131.11C151.734 131.223 152.059 131.207 152.092 131.191C152.271 131.175 152.498 131.11 152.645 130.996C153.003 130.705 153.328 130.38 153.605 130.008C153.28 130.072 152.97 130.153 152.645 130.218C152.987 130.526 153.393 130.737 153.833 130.818C154.012 130.85 154.191 130.834 154.37 130.769C154.484 130.737 154.728 130.656 154.76 130.526C154.842 130.186 154.598 129.91 154.646 129.586C154.695 129.262 154.923 129.003 155.135 128.776C155.248 128.662 155.118 128.565 154.988 128.565C154.825 128.565 154.663 128.549 154.5 128.549C154.419 128.549 154.337 128.549 154.256 128.549C154.207 128.549 154.174 128.549 154.126 128.549C154.077 128.549 154.061 128.549 154.093 128.549C153.995 128.468 153.963 128.241 153.914 128.144C153.849 127.982 153.8 127.819 153.735 127.657C153.686 127.528 153.41 127.56 153.312 127.576C153.133 127.609 152.856 127.674 152.743 127.819C152.466 128.192 152.336 128.597 152.319 129.051C152.336 129.213 153.377 129.051 153.377 128.727Z" fill="#E4E3FF"/>
<path d="M346.134 187.694C345.369 187.223 344.751 186.494 344.442 185.651C345.06 185.765 345.662 185.894 346.281 186.008C346.411 186.04 346.557 186.056 346.704 186.008C346.85 185.959 346.948 185.813 347.029 185.7C347.387 185.165 347.761 184.614 348.119 184.079C348.38 185.035 348.754 186.105 349.681 186.478C350.153 186.672 350.755 186.656 351.081 187.045C350.43 187.742 349.568 188.261 348.64 188.504C348.998 189.395 349.242 190.335 349.34 191.292C348.786 190.903 348.217 190.514 347.664 190.141C347.534 190.044 347.387 189.946 347.224 189.93C347.11 189.914 346.98 189.93 346.85 189.963C346.053 190.109 345.255 190.254 344.474 190.416C344.995 189.541 345.63 188.731 346.346 188.001" fill="#E4E3FF"/>
<path d="M346.541 187.433C345.809 186.979 345.272 186.299 344.963 185.521C344.686 185.667 344.409 185.812 344.133 185.942C344.653 186.039 345.174 186.153 345.695 186.25C346.134 186.331 346.541 186.412 346.98 186.218C347.355 186.039 347.534 185.699 347.761 185.375C348.054 184.953 348.331 184.532 348.624 184.111C348.282 184.159 347.957 184.192 347.615 184.24C347.81 184.953 348.054 185.731 348.575 186.266C348.819 186.526 349.128 186.704 349.47 186.817C349.861 186.947 350.316 186.963 350.609 187.271C350.625 187.174 350.658 187.077 350.674 186.979C350.088 187.579 349.389 188.033 348.575 188.276C348.445 188.308 348.038 188.471 348.136 188.681C348.494 189.573 348.738 190.513 348.835 191.469C349.145 191.339 349.454 191.21 349.763 191.08C349.372 190.805 348.982 190.545 348.591 190.27C348.233 190.027 347.892 189.702 347.436 189.67C346.997 189.621 346.525 189.783 346.102 189.864C345.581 189.962 345.077 190.059 344.556 190.156C344.702 190.253 344.832 190.367 344.979 190.464C345.5 189.621 346.085 188.843 346.769 188.13C346.915 187.968 346.883 187.806 346.671 187.741C346.46 187.676 346.102 187.774 345.939 187.936C345.207 188.697 344.556 189.524 344.003 190.432C343.84 190.691 344.23 190.772 344.426 190.74C344.849 190.659 345.272 190.578 345.679 190.497C345.89 190.464 346.102 190.416 346.313 190.383C346.492 190.351 346.736 190.253 346.932 190.27C347.257 190.302 347.631 190.675 347.892 190.853C348.25 191.096 348.608 191.339 348.949 191.583C349.193 191.745 349.926 191.534 349.877 191.194C349.763 190.237 349.535 189.297 349.177 188.406C349.031 188.535 348.884 188.681 348.738 188.811C349.795 188.503 350.755 187.952 351.52 187.174C351.602 187.093 351.683 186.979 351.585 186.882C351.048 186.315 350.17 186.477 349.616 185.942C349.079 185.423 348.852 184.678 348.656 183.981C348.543 183.608 347.794 183.9 347.648 184.111C347.436 184.419 347.224 184.727 347.029 185.034C346.932 185.197 346.818 185.342 346.72 185.504C346.687 185.553 346.476 185.78 346.492 185.845C346.411 185.942 346.476 185.926 346.72 185.796C346.639 185.78 346.557 185.764 346.492 185.748C346.297 185.715 346.118 185.667 345.923 185.634C345.548 185.553 345.174 185.488 344.784 185.407C344.588 185.375 343.824 185.504 343.954 185.829C344.312 186.736 344.93 187.466 345.76 187.984C346.02 188.13 346.964 187.709 346.541 187.433Z" fill="#E4E3FF"/>
<path d="M381.949 174.531C381.607 174.321 381.331 173.996 381.184 173.624C381.461 173.672 381.737 173.737 381.998 173.786C382.063 173.802 382.128 173.818 382.177 173.786C382.242 173.77 382.274 173.705 382.323 173.64C382.486 173.397 382.649 173.17 382.811 172.927C382.925 173.348 383.104 173.834 383.511 173.996C383.723 174.078 383.999 174.078 384.146 174.256C383.853 174.564 383.478 174.791 383.055 174.904C383.218 175.293 383.332 175.715 383.381 176.136C383.137 175.958 382.876 175.796 382.632 175.617C382.567 175.569 382.502 175.536 382.437 175.52C382.388 175.504 382.323 175.52 382.274 175.536C381.916 175.601 381.575 175.666 381.217 175.731C381.444 175.342 381.721 174.985 382.046 174.661" fill="#E4E3FF"/>
<path d="M382.356 174.256C382.063 174.077 381.835 173.802 381.705 173.478C381.428 173.624 381.152 173.786 380.875 173.931C381.086 173.98 381.298 174.013 381.526 174.061C381.835 174.126 382.112 174.175 382.421 174.045C382.665 173.931 382.795 173.737 382.941 173.526C383.072 173.332 383.202 173.153 383.316 172.959C382.974 172.991 382.649 173.024 382.307 173.056C382.404 173.38 382.518 173.753 382.762 174.013C382.909 174.158 383.072 174.256 383.251 174.32C383.348 174.353 383.43 174.369 383.527 174.385C383.609 174.402 383.625 174.402 383.674 174.45C383.69 174.337 383.706 174.223 383.722 174.11C383.592 174.239 383.511 174.304 383.332 174.418C383.267 174.466 383.332 174.418 383.283 174.434C383.251 174.45 383.202 174.466 383.169 174.483C383.12 174.499 383.072 174.531 383.023 174.547C383.12 174.515 382.99 174.547 382.958 174.564C382.811 174.612 382.437 174.791 382.518 175.017C382.681 175.423 382.795 175.828 382.844 176.249C383.153 176.103 383.462 175.974 383.771 175.828C383.592 175.698 383.397 175.569 383.218 175.455C383.023 175.325 382.828 175.18 382.583 175.163C382.323 175.147 382.063 175.228 381.802 175.277C381.575 175.325 381.347 175.358 381.119 175.406C381.314 175.52 381.493 175.633 381.688 175.747C381.9 175.39 382.16 175.066 382.453 174.758C382.616 174.596 382.551 174.385 382.339 174.32C382.095 174.256 381.786 174.337 381.607 174.515C381.265 174.872 380.973 175.261 380.712 175.666C380.647 175.779 380.68 175.909 380.794 175.974C380.94 176.071 381.119 176.039 381.282 176.006C381.461 175.974 381.64 175.941 381.819 175.909C381.916 175.893 382.014 175.876 382.095 175.86C382.144 175.86 382.177 175.844 382.225 175.844C382.307 175.828 382.274 175.844 382.193 175.828C382.063 175.795 382.16 175.828 382.193 175.86C382.225 175.876 382.258 175.909 382.291 175.925C382.372 175.974 382.437 176.022 382.518 176.087C382.665 176.184 382.811 176.298 382.974 176.395C383.251 176.59 383.95 176.379 383.901 175.974C383.853 175.552 383.739 175.131 383.576 174.742C383.43 174.888 383.283 175.034 383.137 175.196C383.674 175.05 384.178 174.758 384.569 174.353C384.65 174.272 384.715 174.126 384.617 174.013C384.471 173.867 384.292 173.786 384.097 173.737C383.95 173.705 383.836 173.672 383.739 173.607C383.511 173.397 383.413 173.072 383.332 172.781C383.283 172.602 383.023 172.57 382.876 172.586C382.665 172.619 382.453 172.7 382.323 172.878C382.225 173.008 382.144 173.153 382.046 173.283C382.014 173.332 381.981 173.38 381.949 173.429C381.933 173.461 381.9 173.494 381.884 173.526C381.835 173.575 381.835 173.591 381.867 173.559C382.339 173.494 382.47 173.461 382.258 173.429C382.225 173.429 382.177 173.413 382.144 173.413C382.079 173.397 382.03 173.397 381.965 173.38C381.802 173.348 381.656 173.316 381.493 173.283C381.298 173.251 381.086 173.267 380.907 173.364C380.794 173.429 380.598 173.575 380.663 173.737C380.842 174.175 381.135 174.531 381.542 174.791C381.754 174.92 382.095 174.839 382.274 174.709C382.453 174.612 382.567 174.385 382.356 174.256Z" fill="#E4E3FF"/>
<path d="M114.845 279.511C121.159 280.451 127.553 280.873 133.932 280.808C134.29 280.808 134.697 280.776 134.957 280.532C135.201 280.289 135.234 279.9 135.25 279.544C135.331 276.432 135.234 273.304 134.957 270.192C134.941 269.932 134.908 269.673 134.778 269.462C134.518 269.041 133.932 268.944 133.428 268.895C126.935 268.263 120.459 267.615 113.966 266.982C114.015 270.451 114.048 273.903 114.096 277.372C114.113 278.182 114.178 279.122 114.861 279.576" fill="#30373E"/>
<path d="M114.666 279.868C118.262 280.403 121.874 280.775 125.503 280.97C127.309 281.067 129.132 281.132 130.938 281.164C131.833 281.181 132.728 281.181 133.623 281.164C134.306 281.164 135.12 281.116 135.526 280.484C135.917 279.852 135.771 278.879 135.787 278.182C135.803 277.274 135.787 276.351 135.771 275.443C135.722 273.644 135.64 271.845 135.461 270.062C135.396 269.349 135.071 268.879 134.371 268.684C133.623 268.473 132.777 268.473 132.012 268.392C130.189 268.214 128.351 268.036 126.528 267.858C122.395 267.452 118.278 267.047 114.145 266.642C113.95 266.626 113.429 266.755 113.429 267.031C113.462 269.43 113.494 271.845 113.527 274.244C113.543 275.378 113.527 276.529 113.576 277.663C113.608 278.506 113.738 279.333 114.454 279.868C114.796 280.111 115.724 279.641 115.268 279.301C114.585 278.782 114.633 277.745 114.617 276.967C114.601 275.848 114.585 274.73 114.568 273.628C114.536 271.391 114.519 269.17 114.487 266.934C114.243 267.063 114.015 267.193 113.771 267.323C117.155 267.663 120.556 267.987 123.941 268.328C125.617 268.49 127.309 268.652 128.985 268.83C129.848 268.911 130.694 268.992 131.556 269.089C132.272 269.154 133.069 269.138 133.769 269.349C134.566 269.576 134.453 270.548 134.518 271.229C134.583 272.104 134.648 272.996 134.68 273.871C134.762 275.54 134.778 277.226 134.745 278.895C134.745 279.252 134.762 279.641 134.697 279.997C134.664 280.16 134.632 280.354 134.469 280.435C134.322 280.5 134.062 280.467 133.916 280.467C133.086 280.484 132.24 280.467 131.41 280.467C129.717 280.451 128.009 280.386 126.317 280.305C122.541 280.111 118.783 279.722 115.04 279.171C114.552 279.106 113.966 279.771 114.666 279.868Z" fill="white"/>
<path d="M115.691 264.13C122.281 264.535 132.597 265.167 132.597 265.167C132.744 262.25 133.248 254.583 133.037 254.421C132.89 254.324 116.96 252.736 116.7 253.043C116.537 253.254 115.707 260.985 115.691 264.13Z" fill="#30373E"/>
<path d="M115.512 264.486C120.686 264.81 125.877 265.118 131.051 265.443C131.507 265.475 131.963 265.491 132.418 265.524C132.646 265.54 133.118 265.426 133.118 265.118C133.281 261.796 133.59 258.473 133.606 255.15C133.606 254.875 133.688 254.372 133.476 254.162C133.33 254.016 133.02 254.016 132.825 254C131.865 253.886 130.905 253.789 129.945 253.692C126.935 253.384 123.924 253.108 120.898 252.865C119.808 252.784 118.717 252.687 117.611 252.654C116.96 252.638 116.244 252.573 116.098 253.367C115.837 254.745 115.74 256.155 115.609 257.549C115.43 259.413 115.268 261.277 115.186 263.141C115.17 263.498 115.154 263.838 115.154 264.194C115.154 264.713 116.195 264.551 116.195 264.113C116.228 260.823 116.586 257.484 117.009 254.226C117.041 253.983 117.074 253.74 117.106 253.497C117.123 253.416 117.204 253.173 117.188 253.092C117.22 253.173 116.927 253.335 116.814 253.4C116.814 253.4 116.651 253.4 116.781 253.416C116.83 253.416 116.879 253.416 116.927 253.416C116.976 253.416 117.172 253.416 117.025 253.416C117.969 253.432 118.929 253.513 119.873 253.578C122.769 253.789 125.665 254.064 128.562 254.356C129.652 254.47 130.759 254.583 131.849 254.697C132.125 254.729 132.402 254.761 132.695 254.794C132.728 254.794 132.76 254.81 132.793 254.81C132.744 254.826 132.581 254.648 132.549 254.664C132.516 254.664 132.549 254.632 132.549 254.729C132.549 254.81 132.549 254.778 132.565 254.891C132.614 256.269 132.5 257.646 132.418 259.008C132.321 260.775 132.223 262.525 132.125 264.292C132.109 264.616 132.093 264.94 132.077 265.248C132.304 265.118 132.549 264.972 132.776 264.843C128.725 264.6 124.689 264.357 120.637 264.097C119.043 264 117.464 263.903 115.87 263.805C115.642 263.789 115.3 263.87 115.186 264.113C115.105 264.308 115.284 264.47 115.512 264.486Z" fill="white"/>
<path d="M114.389 266.982C114.471 266.01 114.552 265.037 114.633 264.065C120.735 264.438 126.853 264.811 132.955 265.183C133.086 265.2 133.248 265.2 133.346 265.297C133.46 265.41 133.46 265.605 133.444 265.783C133.362 266.772 133.297 267.76 133.216 268.749C127.569 268.36 121.272 267.631 114.389 266.982Z" fill="#30373E"/>
<path d="M114.91 266.934C114.991 265.961 115.073 264.989 115.154 264.016C114.926 264.146 114.682 264.292 114.454 264.421C118.099 264.648 121.744 264.875 125.389 265.086C127.195 265.199 129.002 265.313 130.808 265.426C131.28 265.459 131.752 265.491 132.223 265.507C132.37 265.524 132.63 265.475 132.76 265.54C132.874 265.524 132.923 265.572 132.923 265.686C132.923 265.783 132.907 265.88 132.907 265.994C132.842 266.918 132.76 267.858 132.695 268.781C132.923 268.652 133.167 268.506 133.395 268.376C127.098 267.955 120.833 267.209 114.552 266.61C114.324 266.593 113.983 266.691 113.869 266.918C113.771 267.144 113.95 267.323 114.178 267.339C120.459 267.939 126.723 268.684 133.021 269.106C133.265 269.122 133.704 269.008 133.72 268.7C133.786 267.939 133.834 267.193 133.899 266.431C133.932 265.929 134.143 265.151 133.541 264.892C133.297 264.794 133.021 264.794 132.76 264.778C132.337 264.746 131.931 264.729 131.507 264.697C130.743 264.648 129.962 264.6 129.197 264.551C126.138 264.357 123.095 264.178 120.036 263.984C118.278 263.87 116.537 263.773 114.78 263.66C114.536 263.643 114.096 263.757 114.08 264.065C113.999 265.037 113.917 266.01 113.836 266.982C113.82 267.533 114.861 267.388 114.91 266.934Z" fill="white"/>
<path d="M118.164 279.965C118.425 282.007 118.408 284.341 118.18 286.383C118.018 287.826 117.741 289.398 118.506 290.646C118.652 290.873 118.831 291.084 119.075 291.213C119.596 291.456 120.247 291.165 120.572 290.711C120.914 290.241 121.012 289.657 121.093 289.09C121.451 286.643 121.695 284.179 121.793 281.699C121.809 281.472 121.89 280.565 121.744 280.386C121.646 280.24 119.368 280.127 118.164 279.965Z" fill="#30373E"/>
<path d="M127.96 280.84C127.732 283.385 127.846 286.059 127.618 288.588C127.553 289.269 127.504 289.998 127.83 290.598C128.155 291.197 129.001 291.57 129.555 291.165C129.831 290.954 129.961 290.614 130.075 290.29C130.596 288.653 130.694 286.935 130.791 285.217C130.873 283.936 131.068 280.986 131.003 280.905C130.922 280.857 128.855 280.857 127.96 280.84Z" fill="#30373E"/>
<path d="M154.354 314.327C155.2 314.7 156.192 315.284 156.111 316.208C156.079 316.548 155.9 316.856 155.704 317.148C153.166 321.2 150.497 325.171 147.715 329.061C147.178 329.822 146.494 330.649 145.551 330.665C144.932 330.681 144.379 330.325 143.858 329.968C142.215 328.866 140.571 327.764 138.928 326.662C138.423 326.321 137.87 325.868 137.919 325.268C137.952 324.976 138.131 324.717 138.293 324.458C141.417 320.081 144.542 315.689 147.666 311.313C147.91 310.972 148.203 310.616 148.61 310.6C148.886 310.6 149.147 310.762 149.374 310.908C150.969 312.01 152.58 313.112 154.175 314.198" fill="#30373E"/>
<path d="M154.045 314.505C154.614 314.764 155.298 315.088 155.59 315.672C155.981 316.45 155.265 317.228 154.874 317.86C153.914 319.367 152.938 320.858 151.962 322.349C150.969 323.841 149.96 325.316 148.951 326.774C148.447 327.504 147.926 328.233 147.406 328.962C147.031 329.481 146.543 330.243 145.876 330.405C145.095 330.583 144.265 329.821 143.663 329.432C142.915 328.93 142.166 328.427 141.418 327.925C140.669 327.423 139.904 326.936 139.156 326.401C138.863 326.207 138.554 325.964 138.391 325.64C138.179 325.202 138.407 324.829 138.651 324.473C140.75 321.474 142.915 318.508 145.046 315.51C145.648 314.667 146.25 313.824 146.852 312.981C147.145 312.576 147.438 312.155 147.731 311.749C148.008 311.377 148.301 310.696 148.838 310.939C149.261 311.133 149.635 311.49 150.025 311.749C150.432 312.025 150.855 312.317 151.262 312.592C152.141 313.192 153.003 313.792 153.882 314.391C154.093 314.537 154.809 314.229 154.5 314.018C153.622 313.419 152.759 312.819 151.88 312.219C151.474 311.944 151.051 311.652 150.644 311.377C150.221 311.085 149.798 310.728 149.342 310.501C148.691 310.193 147.991 310.485 147.552 311.004C146.917 311.749 146.397 312.608 145.827 313.403C143.37 316.839 140.913 320.291 138.456 323.727C138 324.359 137.219 325.137 137.675 325.948C138.066 326.628 138.928 327.05 139.563 327.471C140.441 328.055 141.304 328.638 142.182 329.222C142.931 329.724 143.712 330.389 144.558 330.713C146.153 331.313 147.341 330.097 148.187 328.914C149.375 327.244 150.546 325.575 151.685 323.873C152.971 321.96 154.24 320.032 155.477 318.087C155.916 317.39 156.762 316.466 156.437 315.591C156.16 314.845 155.346 314.424 154.679 314.132C154.435 314.018 153.719 314.359 154.045 314.505Z" fill="white"/>
<path d="M137.479 298.347C133.33 303.501 129.181 308.639 125.031 313.793C124.299 314.701 123.551 315.657 123.225 316.775C123.144 317.099 123.095 317.456 123.241 317.764C123.355 317.991 123.567 318.137 123.762 318.283C124.446 318.801 125.145 319.304 125.829 319.822C130.141 313.485 134.632 307.277 139.741 301.572C139.92 301.378 140.213 301.053 140.246 300.794C140.294 300.405 140.099 300.324 139.79 300.065C139.107 299.497 138.293 298.719 137.479 298.347Z" fill="#30373E"/>
<path d="M137.154 298.216C134.73 301.23 132.305 304.245 129.864 307.243C128.66 308.735 127.456 310.226 126.252 311.733C125.65 312.479 125.048 313.224 124.462 313.97C123.958 314.602 123.453 315.267 123.111 316.012C122.802 316.709 122.493 317.6 123.111 318.216C123.437 318.541 123.844 318.8 124.218 319.075C124.657 319.4 125.097 319.724 125.536 320.048C125.699 320.178 126.04 320.113 126.154 319.934C128.351 316.709 130.613 313.5 132.956 310.372C134.128 308.816 135.332 307.276 136.568 305.752C137.203 304.974 137.854 304.196 138.505 303.435C139.09 302.754 139.725 302.106 140.278 301.409C140.49 301.133 140.685 300.809 140.604 300.436C140.522 300.112 140.213 299.917 139.969 299.723C139.237 299.123 138.537 298.475 137.675 298.053C137.333 297.891 136.78 298.378 137.235 298.588C137.968 298.945 138.586 299.528 139.221 300.047C139.432 300.225 139.823 300.42 139.839 300.712C139.855 301.068 139.4 301.425 139.188 301.668C137.984 303.029 136.812 304.407 135.657 305.817C133.346 308.654 131.166 311.587 129.034 314.57C127.83 316.255 126.659 317.957 125.487 319.659C125.699 319.626 125.91 319.594 126.105 319.545C125.389 319.027 124.69 318.508 123.974 317.973C123.632 317.714 123.469 317.438 123.518 316.985C123.567 316.579 123.762 316.158 123.958 315.801C124.316 315.104 124.82 314.489 125.324 313.873C125.894 313.159 126.48 312.446 127.049 311.733C129.327 308.913 131.605 306.077 133.883 303.256C135.185 301.652 136.471 300.031 137.772 298.426C138.114 298.086 137.382 297.94 137.154 298.216Z" fill="white"/>
<path d="M136.682 326.386C140.588 321.248 144.314 315.964 147.861 310.567C148.008 310.34 148.154 310.113 148.17 309.838C148.187 309.449 147.91 309.124 147.65 308.833C145.274 306.207 142.589 303.873 139.66 301.879C138.342 303.063 137.268 304.505 136.211 305.931C132.94 310.34 129.669 314.749 126.382 319.173C129.36 321.815 133.233 324.409 136.682 326.386Z" fill="#30373E"/>
<path d="M136.991 326.499C139.627 323.014 142.198 319.481 144.672 315.882C145.306 314.959 145.925 314.051 146.543 313.111C147.145 312.219 147.828 311.328 148.349 310.388C148.837 309.496 148.138 308.848 147.552 308.216C146.852 307.47 146.136 306.757 145.388 306.06C143.679 304.472 141.857 303.013 139.937 301.7C139.741 301.571 139.465 301.684 139.318 301.814C138.033 302.981 136.991 304.358 135.966 305.736C134.876 307.195 133.786 308.67 132.696 310.129C130.483 313.111 128.253 316.109 126.04 319.092C125.992 319.156 125.926 319.286 126.008 319.351C129.165 322.139 132.712 324.505 136.357 326.612C136.633 326.774 137.317 326.402 136.959 326.191C133.363 324.1 129.832 321.782 126.724 319.027C126.708 319.108 126.708 319.205 126.691 319.286C128.904 316.304 131.133 313.305 133.346 310.323C134.437 308.864 135.527 307.389 136.617 305.931C137.642 304.553 138.684 303.175 139.969 302.008C139.758 302.041 139.546 302.089 139.351 302.122C141.011 303.256 142.605 304.504 144.102 305.85C144.818 306.498 145.518 307.162 146.185 307.859C146.527 308.2 146.852 308.556 147.178 308.913C147.536 309.302 147.926 309.723 147.65 310.274C147.454 310.68 147.161 311.052 146.917 311.425C146.608 311.895 146.283 312.381 145.973 312.852C145.404 313.711 144.818 314.553 144.249 315.412C143.077 317.13 141.873 318.832 140.653 320.534C139.253 322.479 137.821 324.408 136.373 326.32C136.064 326.677 136.796 326.758 136.991 326.499Z" fill="white"/>
<path d="M110.533 309.658C112.03 308.718 113.299 307.486 114.276 306.012C114.39 305.833 113.902 305.866 113.853 305.882C113.641 305.914 113.381 305.995 113.251 306.174C112.339 307.535 111.135 308.702 109.736 309.577C109.557 309.691 109.622 309.82 109.801 309.837C110.045 309.869 110.322 309.788 110.533 309.658Z" fill="#977DFF"/>
<path d="M108.499 302.754C108.873 302.429 109.28 302.154 109.703 301.943C109.931 301.83 110.061 301.781 110.338 301.684C110.37 301.668 110.403 301.668 110.436 301.652C110.37 301.668 110.387 301.668 110.436 301.652C110.501 301.635 110.566 301.619 110.631 301.603C110.696 301.587 110.761 301.57 110.826 301.554C110.891 301.538 110.891 301.538 110.826 301.554C110.859 301.554 110.891 301.538 110.924 301.538C111.054 301.506 111.2 301.473 111.314 301.408C111.379 301.376 111.493 301.311 111.526 301.23C111.575 301.036 111.184 301.084 111.103 301.1C109.785 301.36 108.564 301.927 107.555 302.802C107.376 302.964 107.718 303.013 107.816 303.013C108.044 302.981 108.304 302.916 108.499 302.754Z" fill="#977DFF"/>
<path d="M111.282 297.243C110.37 295.881 108.939 294.958 107.344 294.617C107.116 294.569 106.791 294.666 106.612 294.812C106.449 294.958 106.498 295.103 106.693 295.136C108.174 295.444 109.475 296.384 110.305 297.632C110.354 297.697 110.517 297.713 110.582 297.713C110.712 297.713 110.859 297.68 110.989 297.632C111.135 297.567 111.396 297.421 111.282 297.243Z" fill="#977DFF"/>
<path d="M261.975 376.388C269.607 379.533 275.579 377.004 282.38 372.774C289.003 368.657 294.682 362.968 298.636 356.258C305.291 344.977 307.032 330.924 303.339 318.363C300.458 308.573 294.568 299.967 288.759 291.571C279.224 277.762 269.688 263.936 260.153 250.127C257.338 246.042 254.474 241.877 253.107 237.128C251.268 230.758 252.228 223.805 250.146 217.516C247.982 211.001 242.726 205.863 236.721 202.475C230.733 199.088 223.997 197.272 217.309 195.587C208.913 193.463 200.354 191.502 191.697 191.713C183.04 191.924 174.14 194.517 167.859 200.481C164.718 203.464 161.773 207.483 157.428 207.759C154.678 207.937 152.075 206.495 149.325 206.284C145.794 206.025 142.181 208.018 140.571 211.163C138.96 214.307 139.383 218.391 141.661 221.098C144.15 224.097 148.934 226.674 147.649 230.353C147.323 231.293 146.607 232.039 146.217 232.946C144.817 236.237 148.137 239.721 151.505 240.953C154.89 242.185 158.779 242.396 161.529 244.697C154.711 241.634 147.096 240.353 139.643 241.002C137.788 241.164 135.656 241.65 134.875 243.336C134.127 244.973 135.087 246.853 136.161 248.279C142.784 257.096 154.223 260.435 164.214 265.136C187.694 276.173 205.414 296.612 219.571 318.298C223.02 323.582 226.372 329.158 227.235 335.398C227.69 338.737 227.43 342.14 227.935 345.463C228.569 349.58 230.359 353.405 232.133 357.165C239.162 372.093 246.192 387.021 253.221 401.948C254.002 403.618 254.848 405.352 256.313 406.454C260.316 409.453 262.822 405.109 263.228 401.624C263.847 396.47 263.944 378.317 261.585 376.194L261.975 376.388Z" fill="white"/>
<path d="M261.552 376.582C266.906 378.737 272.308 378.154 277.466 375.739C282.901 373.194 287.929 369.58 292.111 365.317C300.621 356.63 305.438 344.895 305.747 332.787C305.893 326.58 304.836 320.404 302.655 314.586C300.361 308.491 296.993 302.867 293.397 297.438C285.488 285.508 277.174 273.855 269.038 262.071C265.035 256.269 260.723 250.564 257.094 244.534C255.418 241.746 254.019 238.813 253.286 235.636C252.538 232.394 252.408 229.055 252.131 225.749C251.871 222.524 251.464 219.282 250.276 216.251C249.283 213.723 247.803 211.405 246.029 209.346C242.124 204.808 236.884 201.696 231.368 199.492C225.12 196.996 218.464 195.44 211.923 193.932C205.252 192.409 198.45 191.258 191.583 191.469C185.969 191.647 180.323 192.798 175.23 195.197C172.724 196.364 170.381 197.855 168.298 199.67C166.231 201.453 164.523 203.609 162.391 205.327C161.155 206.332 159.739 207.207 158.144 207.45C156.371 207.709 154.597 207.126 152.905 206.672C150.334 205.975 147.877 205.732 145.338 206.688C140.408 208.552 137.772 213.901 139.773 218.861C140.717 221.211 142.702 222.783 144.492 224.485C146.119 226.041 148.056 228.115 147.079 230.547C146.575 231.811 145.566 232.767 145.403 234.193C145.257 235.458 145.745 236.673 146.461 237.694C148.039 239.915 150.48 241.017 153.035 241.714C155.817 242.476 158.746 242.978 161.041 244.842C161.366 244.729 161.692 244.599 162.017 244.486C157.249 242.379 152.14 241.066 146.933 240.693C144.443 240.515 141.905 240.498 139.415 240.79C137.837 240.968 135.966 241.374 134.859 242.622C133.297 244.405 134.436 246.771 135.64 248.392C136.926 250.126 138.455 251.698 140.131 253.076C143.565 255.928 147.535 258.052 151.57 259.916C155.801 261.877 160.162 263.563 164.36 265.589C168.64 267.647 172.757 270.013 176.694 272.671C184.684 278.036 191.892 284.503 198.417 291.538C205.089 298.718 211.061 306.53 216.544 314.634C219.408 318.848 222.337 323.127 224.42 327.795C225.461 330.145 226.275 332.593 226.665 335.138C227.105 337.925 226.975 340.762 227.202 343.582C227.625 349.06 230.05 353.939 232.344 358.834C234.883 364.247 237.437 369.645 239.976 375.058C242.465 380.342 244.939 385.61 247.428 390.894C248.698 393.6 249.967 396.307 251.252 398.998C252.31 401.234 253.189 403.811 254.832 405.692C257.127 408.317 260.706 408.252 262.529 405.222C263.993 402.79 263.944 399.727 264.042 396.972C264.156 393.6 264.156 390.229 264.01 386.858C263.879 383.908 263.765 380.812 263.001 377.959C262.822 377.279 262.594 376.517 262.073 376.014C261.748 376.128 261.422 376.258 261.097 376.371C261.227 376.436 261.357 376.501 261.487 376.566C261.764 376.695 262.61 376.274 262.464 376.209C262.334 376.144 262.203 376.079 262.073 376.014C261.894 375.917 260.885 376.16 261.097 376.371C261.65 376.906 261.862 377.814 262.041 378.543C262.334 379.759 262.496 381.007 262.626 382.238C262.968 385.431 263.066 388.673 263.082 391.882C263.098 394.751 263.049 397.636 262.838 400.489C262.61 403.39 261.064 409.144 257.094 406.47C255.093 405.124 254.181 402.742 253.205 400.651C252.001 398.074 250.78 395.497 249.576 392.936C247.217 387.911 244.857 382.903 242.482 377.878C240.122 372.854 237.763 367.846 235.387 362.821C233.174 358.105 230.571 353.388 229.139 348.363C227.707 343.339 228.537 338.087 227.349 333.047C226.21 328.184 223.688 323.776 221.019 319.594C216.121 311.928 210.784 304.504 204.942 297.519C193.373 283.677 179.509 271.602 162.912 264.146C155.134 260.645 146.689 257.809 140.245 252.022C138.634 250.58 136.975 248.894 135.917 246.998C135.364 246.025 134.924 244.842 135.233 243.708C135.591 242.346 136.828 241.665 138.13 241.406C140.619 240.887 143.353 240.985 145.875 241.147C148.544 241.309 151.196 241.73 153.8 242.379C156.273 242.994 158.698 243.837 161.041 244.875C161.236 244.956 162.229 244.696 162.017 244.518C157.672 241.017 150.789 242.265 147.405 237.338C146.689 236.3 146.233 235.02 146.461 233.74C146.705 232.329 147.86 231.357 148.235 230.012C148.788 228.051 147.568 226.332 146.266 224.987C144.525 223.156 142.295 221.665 141.124 219.363C139.92 216.997 139.773 214.112 140.815 211.664C142.003 208.86 144.801 206.737 147.877 206.51C150.92 206.283 153.702 208.017 156.745 208.001C161.708 207.969 164.881 203.803 168.119 200.675C172.464 196.477 178.11 193.932 184 192.765C190.46 191.485 197.116 191.842 203.576 192.895C210.101 193.965 216.593 195.586 222.939 197.401C233.923 200.545 246.078 206.267 249.755 218.018C251.659 224.144 250.813 230.709 252.489 236.884C254.165 243.043 258.249 248.246 261.829 253.432C269.672 264.794 277.515 276.14 285.358 287.502C292.469 297.794 300.394 308.248 303.404 320.599C306.203 332.139 304.559 344.684 298.864 355.106C296.033 360.276 292.193 364.88 287.685 368.656C285.309 370.65 282.722 372.4 280.037 373.956C277.385 375.496 274.537 376.874 271.478 377.376C268.387 377.878 265.328 377.344 262.431 376.193C262.171 376.079 261.227 376.452 261.552 376.582Z" fill="#30373E"/>
<path d="M149.065 218.682C147.779 218.374 146.429 218.245 145.16 217.694C142.507 216.51 139.66 214.744 138.7 211.616C137.951 209.233 138.618 206.445 140.278 205.019C141.547 203.917 143.028 202.944 148.739 204.03C151.424 204.533 153.605 206.461 156.046 207.677C156.029 207.677 156.875 220.514 149.065 218.682Z" fill="#30373E"/>
<path d="M213.795 215.927C214.852 219.152 216.056 222.378 217.798 225.295C223.314 234.534 234.492 240.061 245.216 238.861C246.306 238.732 247.429 238.537 248.405 238.035C249.511 237.451 250.39 236.495 251.139 235.506C255.076 230.304 256.411 223.253 254.653 216.981C253.4 212.539 242.433 193.706 224.908 191.258C218.969 190.432 212.786 187.968 206.814 188.438C206.83 188.438 210.931 207.142 213.795 215.927Z" fill="#977DFF"/>
<path d="M205.675 292.057C202.502 290.647 198.841 291.312 195.391 291.749C185.498 292.981 175.181 291.911 166.167 287.697C164.296 286.822 162.375 285.687 161.578 283.791C160.179 280.468 163.075 276.822 166.297 275.152C172.171 272.105 179.201 272.64 185.775 273.483C192.348 274.326 199.183 275.395 205.464 273.272C207.319 272.64 209.174 271.684 210.508 270.225C212.363 268.215 212.493 265.2 214.169 263.028C217.977 258.117 224.681 258.101 230.36 258.425" fill="white"/>
<path d="M206.163 291.894C202.079 290.128 197.458 291.44 193.243 291.813C188.736 292.202 184.18 292.089 179.705 291.408C175.263 290.727 170.886 289.479 166.818 287.599C165.125 286.821 163.287 285.832 162.343 284.147C161.432 282.494 161.692 280.597 162.603 278.993C164.702 275.346 169.079 273.806 173.05 273.287C177.411 272.72 181.853 273.223 186.181 273.79C190.705 274.373 195.277 275.005 199.85 274.6C202.063 274.406 204.276 273.952 206.358 273.158C208.197 272.445 210.052 271.423 211.305 269.851C212.493 268.344 212.916 266.448 213.681 264.729C214.446 263.028 215.715 261.618 217.293 260.613C220.271 258.716 223.997 258.489 227.431 258.554C228.293 258.57 229.172 258.619 230.034 258.668C230.262 258.684 230.587 258.619 230.766 258.473C230.913 258.36 230.929 258.262 230.701 258.246C227.121 258.036 223.428 257.971 219.962 259.024C218.269 259.527 216.675 260.305 215.308 261.439C214.592 262.023 213.941 262.72 213.42 263.481C212.883 264.276 212.509 265.151 212.167 266.042C211.81 266.966 211.5 267.906 211.045 268.798C210.573 269.705 209.955 270.467 209.173 271.115C207.449 272.558 205.219 273.336 203.039 273.79C198.369 274.762 193.504 274.244 188.817 273.644C184.391 273.077 179.933 272.445 175.458 272.704C173.294 272.834 171.13 273.19 169.063 273.838C167.127 274.454 165.223 275.33 163.677 276.659C162.278 277.858 161.057 279.463 160.764 281.327C160.455 283.174 161.253 284.876 162.652 286.076C164.214 287.421 166.248 288.215 168.152 288.977C170.251 289.803 172.399 290.484 174.596 291.003C179.038 292.073 183.61 292.526 188.166 292.462C190.444 292.429 192.723 292.283 194.984 292.008C197.262 291.732 199.54 291.327 201.851 291.489C202.99 291.57 204.113 291.813 205.171 292.267C205.366 292.348 205.642 292.283 205.838 292.202C205.887 292.154 206.326 291.959 206.163 291.894Z" fill="#30373E"/>
<path d="M190.575 199.249C187.288 198.811 184.359 201.842 181.723 203.706C179.445 205.311 176.255 206.315 174.661 208.601C173.18 210.708 172.952 211.21 172.952 213.787C172.936 216.964 175.214 219.833 178.045 221.308C182.341 223.528 188.004 222.783 191.551 219.509C192.527 218.617 193.341 217.564 194.073 216.446C195.765 213.852 196.498 210.805 196.66 207.709C196.807 204.095 194.464 199.751 190.575 199.249Z" fill="#977DFF"/>
<path d="M185.644 208.293C184.115 209.038 182.797 210.173 181.837 211.567C181.625 211.875 181.43 212.248 181.56 212.588C181.69 212.896 182.064 213.058 182.39 213.026C182.732 212.993 183.024 212.815 183.317 212.637C184.31 212.005 185.237 211.227 186.035 210.351C186.279 210.092 186.442 209.784 186.604 209.46C187.629 207.418 185.644 208.293 185.644 208.293Z" fill="#30373E"/>
<path d="M185.189 207.515C183.887 208.147 182.699 209.071 181.772 210.173C181.267 210.773 180.568 211.567 180.633 212.41C180.714 213.496 181.804 214.079 182.813 213.836C183.61 213.658 184.326 213.042 184.945 212.556C185.547 212.086 186.133 211.567 186.637 211C187.125 210.465 187.548 209.735 187.711 209.039C187.857 208.423 187.76 207.79 187.19 207.418C186.604 207.029 185.807 207.256 185.189 207.515C184.766 207.709 184.619 208.358 184.863 208.731C185.156 209.168 185.628 209.249 186.084 209.055C185.661 209.233 186.051 209.071 186.181 209.039C186.279 209.006 186.36 209.006 186.458 208.974C186.377 208.99 186.198 208.99 186.377 208.99C186.393 208.99 186.425 208.99 186.442 208.99C186.588 208.974 186.328 208.974 186.312 208.974C186.328 208.974 186.36 208.99 186.377 208.99C186.474 209.022 186.198 208.909 186.23 208.925C186.312 208.974 186.312 209.006 186.133 208.844C186.165 208.876 186.214 208.941 186.116 208.812C186.084 208.779 185.986 208.487 186.019 208.666C186.035 208.763 186.019 208.406 186.002 208.536C186.002 208.568 185.986 208.617 186.002 208.65C185.97 208.487 186.035 208.455 186.002 208.585C185.986 208.617 185.986 208.65 185.97 208.682C185.954 208.731 185.937 208.795 185.921 208.844C185.856 209.039 185.986 208.714 185.921 208.844C185.791 209.103 185.661 209.379 185.498 209.622C185.368 209.833 185.596 209.541 185.417 209.719C185.368 209.768 185.319 209.833 185.27 209.881C185.173 209.995 185.059 210.092 184.961 210.206C184.733 210.432 184.505 210.643 184.278 210.838C184.147 210.951 184.033 211.048 183.903 211.146C183.838 211.194 183.789 211.243 183.724 211.275C183.838 211.194 183.692 211.308 183.659 211.324C183.415 211.502 183.155 211.68 182.894 211.859C182.764 211.94 182.634 212.021 182.488 212.086C182.341 212.167 182.667 212.005 182.423 212.102C182.227 212.183 182.471 212.118 182.374 212.118C182.26 212.118 182.244 212.183 182.374 212.134C182.341 212.15 182.178 212.053 182.292 212.118C182.406 212.183 182.195 211.972 182.357 212.167C182.423 212.264 182.423 212.28 182.374 212.199C182.406 212.232 182.406 212.264 182.423 212.313C182.439 212.377 182.374 212.507 182.439 212.345C182.52 212.118 182.374 212.394 182.471 212.28C182.553 212.167 182.618 212.037 182.699 211.924C182.732 211.875 182.781 211.81 182.813 211.761C182.813 211.778 182.976 211.567 182.894 211.664C182.813 211.761 182.992 211.551 182.976 211.567C183.041 211.486 183.106 211.421 183.155 211.356C183.578 210.87 184.05 210.432 184.554 210.043C184.424 210.141 184.57 210.027 184.603 210.011C184.684 209.962 184.766 209.898 184.831 209.849C184.961 209.752 185.107 209.671 185.238 209.573C185.514 209.395 185.807 209.249 186.1 209.103C186.523 208.893 186.67 208.277 186.425 207.888C186.133 207.418 185.644 207.304 185.189 207.515Z" fill="#30373E"/>
<path d="M228.944 346.792C227.17 338.752 229.628 330.405 234.216 323.744C236.413 320.534 239.13 317.795 241.929 315.105C244.289 312.852 247.087 310.34 250.537 310.161C255.305 309.918 258.738 313.905 261.504 317.228C261.667 317.439 262.66 317.082 262.481 316.871C259.861 313.727 256.867 310.275 252.522 309.772C248.845 309.351 245.509 311.215 242.808 313.516C241.441 314.667 240.204 315.948 238.919 317.196C237.406 318.67 235.974 320.243 234.672 321.928C232.085 325.267 229.985 328.979 228.716 333.015C227.301 337.553 226.91 342.415 227.935 347.067C227.952 347.31 228.993 347.051 228.944 346.792Z" fill="#30373E"/>
<path d="M209.89 247.841C207.921 247.744 205.919 247.873 203.95 247.906C201.933 247.938 199.931 247.97 197.913 247.987C193.976 248.019 190.054 248.052 186.116 248.035C178.338 248.019 170.349 248.311 162.766 246.301C159.219 245.361 155.802 243.999 152.515 242.411C149.407 240.92 146.348 239.251 143.5 237.322C140.718 235.425 138.114 233.221 135.999 230.579C133.818 227.889 132.142 224.809 130.857 221.6C126.349 210.384 125.991 197.66 128.79 185.991C131.556 174.45 137.382 163.607 145.599 155.001C154.191 145.989 165.37 139.684 177.378 136.41C189.566 133.087 202.583 132.844 214.901 135.583C221.41 137.042 228 139.214 233.63 142.861C239.521 146.686 243.686 152.326 247.201 158.291C254.198 170.188 258.543 183.592 259.975 197.288C260.69 204.079 260.674 210.951 259.926 217.742C259.177 224.404 257.648 231.39 253.173 236.625C248.828 241.73 242.417 244.567 235.957 245.944C232.15 246.755 228.244 247.128 224.355 247.387C220.971 247.614 217.602 247.825 214.218 247.873C212.77 247.922 211.338 247.938 209.89 247.841C209.694 247.825 209.287 247.873 209.157 248.035C209.06 248.165 208.962 248.262 209.222 248.262C214.267 248.57 219.392 248.133 224.404 247.776C231.58 247.274 238.902 246.317 245.427 243.092C248.324 241.666 251.025 239.818 253.254 237.484C255.532 235.101 257.208 232.232 258.38 229.169C259.6 225.976 260.284 222.605 260.739 219.217C261.195 215.765 261.455 212.296 261.52 208.828C261.781 194.711 258.917 180.545 253.173 167.627C250.358 161.289 246.924 154.984 242.482 149.603C240.253 146.913 237.715 144.53 234.786 142.618C231.857 140.689 228.651 139.198 225.364 137.982C213.307 133.525 200.078 132.277 187.353 134.011C174.807 135.729 162.603 140.43 152.498 148.064C142.817 155.39 135.332 165.406 130.808 176.639C126.317 187.822 124.755 200.254 127.017 212.118C128.27 218.666 130.58 225.23 134.713 230.531C139.042 236.074 145.29 239.737 151.538 242.751C154.842 244.34 158.259 245.718 161.806 246.658C165.549 247.663 169.389 248.1 173.261 248.295C177.232 248.473 181.218 248.457 185.205 248.457C189.306 248.457 193.422 248.441 197.523 248.408C199.443 248.392 201.363 248.359 203.283 248.327C205.252 248.295 207.253 248.149 209.222 248.262C209.418 248.278 209.824 248.23 209.955 248.068C210.069 247.954 210.15 247.857 209.89 247.841Z" fill="#30373E"/>
<path d="M161.431 244.893C161.041 245.508 161.285 246.384 161.805 246.902C162.326 247.437 163.042 247.697 163.742 247.923C177.605 252.527 192.689 249.982 207.302 250.322C214.347 250.484 221.426 251.327 228.423 250.565C232.962 250.079 237.388 248.912 241.814 247.761C242.53 247.583 243.263 247.372 243.816 246.919C244.922 246.027 245.02 244.163 244.027 243.142C229.659 246.983 214.591 246.967 199.735 246.935C196.871 246.935 194.007 246.919 191.144 246.919C181.12 246.902 171.015 246.87 161.187 244.86" fill="#30373E"/>
<path d="M160.943 244.859C160.325 245.977 161.106 247.16 162.115 247.728C163.319 248.392 164.8 248.716 166.118 249.073C168.998 249.835 171.959 250.337 174.921 250.645C180.958 251.277 187.027 251.115 193.08 250.921C199.296 250.726 205.479 250.548 211.679 250.856C218.107 251.18 224.55 251.601 230.929 250.58C234.053 250.078 237.145 249.332 240.204 248.538C241.538 248.198 243.149 247.987 244.239 247.063C245.037 246.382 245.378 245.296 245.183 244.275C245.085 243.773 244.858 243.319 244.516 242.946C244.386 242.8 244.142 242.8 243.946 242.849C233.581 245.604 222.809 246.366 212.118 246.561C206.765 246.658 201.412 246.625 196.058 246.609C190.591 246.593 185.123 246.625 179.656 246.463C173.57 246.269 167.468 245.783 161.48 244.567C161.236 244.518 160.927 244.567 160.748 244.761C160.602 244.924 160.634 245.15 160.862 245.199C171.666 247.403 182.764 247.258 193.731 247.29C204.536 247.306 215.389 247.517 226.161 246.528C232.198 245.977 238.219 245.037 244.093 243.481C243.898 243.449 243.719 243.416 243.523 243.384C244.223 244.129 244.353 245.296 243.865 246.204C243.247 247.339 241.636 247.484 240.513 247.776C237.6 248.538 234.671 249.267 231.694 249.786C225.608 250.84 219.49 250.564 213.355 250.24C210.361 250.094 207.383 249.964 204.389 249.964C201.509 249.964 198.629 250.045 195.765 250.143C189.972 250.337 184.18 250.564 178.387 250.207C175.539 250.029 172.692 249.705 169.893 249.154C168.493 248.878 167.11 248.554 165.76 248.149C165.093 247.954 164.425 247.76 163.758 247.517C163.189 247.322 162.57 247.063 162.164 246.593C161.773 246.139 161.594 245.475 161.903 244.924C162.18 244.454 161.138 244.502 160.943 244.859Z" fill="#30373E"/>
</svg>
