<svg width="514" height="456" viewBox="0 0 514 456" fill="none" xmlns="http://www.w3.org/2000/svg">
<path d="M232.69 185.64H184.19L113.4 63.02C101.8 42.94 108.68 17.24 128.78 5.65C135.39 1.83 142.61 0.0199966 149.74 0.0199966C164.25 0.0199966 178.37 7.55 186.15 21.03L256.94 143.63L232.69 185.64Z" fill="#FCBC05"/>
<path d="M385.11 449.63C365.03 461.23 339.33 454.34 327.72 434.25L256.93 311.65L186.14 434.25C174.54 454.33 148.85 461.23 128.77 449.63C115.3 441.85 107.76 427.73 107.76 413.22C107.76 406.09 109.57 398.87 113.39 392.24L184.18 269.64H329.7L400.49 392.24C412.09 412.34 405.19 438.03 385.11 449.63Z" fill="#E94335"/>
<path d="M513.28 227.63C513.28 250.83 494.47 269.64 471.27 269.64H329.7L305.44 227.63L281.2 185.63L256.94 143.62L327.73 21.02C339.33 0.919992 365.03 -5.96 385.12 5.64C405.2 17.23 412.1 42.93 400.5 63.01L329.7 185.64H471.27C494.48 185.64 513.28 204.44 513.28 227.63Z" fill="#1973E8"/>
<path d="M232.69 185.64L208.43 227.64L184.19 269.65H42.6C19.41 269.65 0.600006 250.84 0.600006 227.64C0.600006 216.05 5.28999 205.55 12.9 197.94C20.51 190.35 30.99 185.64 42.6 185.64H232.69Z" fill="#34A853"/>
<path d="M329.7 269.64H184.19L208.43 227.63L232.69 185.64L256.94 143.62L281.2 185.64L305.44 227.63L329.7 269.64Z" fill="#174FA7"/>
</svg>
