<svg xmlns="http://www.w3.org/2000/svg" width="96" height="96" viewBox="0 0 96 96">
  <!-- พื้นหลังเอกสาร -->
  <path fill="#A0D2F3" d="M72 8H24C19.6 8 16 11.6 16 16v64c0 4.4 3.6 8 8 8h48c4.4 0 8-3.6 8-8V26L62 8z" />

  <!-- มุมพับสีขาว -->
  <path fill="#ffffff" d="M60 9v17h17L60 9z" />

  <!-- กล่องเช็คลิสต์ -->
  <path fill="#1A73E8" d="M28 36h8v8h-8v-8zm0 16h8v8h-8v-8zm0 16h8v8h-8v-8z" />

  <!-- จุดสีขาวสี่เหลี่ยมตรงกลางกล่อง -->
  <rect x="31" y="39" width="2" height="2" fill="#ffffff" />
  <rect x="31" y="55" width="2" height="2" fill="#ffffff" />
  <rect x="31" y="71" width="2" height="2" fill="#ffffff" />

  <!-- เส้นข้อความ -->
  <path fill="#1967D2" d="M40 36h28v4H40v-4zm0 16h28v4H40v-4zm0 16h28v4H40v-4z" />
</svg>