<?xml version="1.0" encoding="utf-8"?>
<!-- Generator: Adobe Illustrator 25.4.1, SVG Export Plug-In . SVG Version: 6.00 Build 0)  -->
<svg version="1.1" id="Layer_1" xmlns="http://www.w3.org/2000/svg" xmlns:xlink="http://www.w3.org/1999/xlink" x="0px" y="0px"
	 viewBox="0 0 85 86" style="enable-background:new 0 0 85 86;" xml:space="preserve">
<style type="text/css">
	.st0{fill:#D32F2F;}
	.st1{fill:#E0E4E8;stroke:#C3C8CC;stroke-width:2;}
	.st2{fill:#90A4AE;}
	.st3{fill:#FFFFFF;stroke:#931A1D;stroke-width:3;stroke-miterlimit:10;}
	.st4{fill:#C3C8CC;}
</style>
<path class="st0" d="M16.5,10.8H68c2.8,0,5,2.2,5,5V27c0,2.8-2.2,5-5,5H16.5c-2.8,0-5-2.2-5-5V15.8C11.5,13,13.7,10.8,16.5,10.8z"/>
<path class="st1" d="M12.4,25h59.8v45c0,2.8-2.2,5-5,5H17.4c-2.8,0-5-2.2-5-5V25z"/>
<g transform="matrix(1.06964, 0, 0, 1.05059, -2.91158, -6.0559)">
	<path class="st2" d="M24.2,35h6c1.1,0,2,0.9,2,2v6c0,1.1-0.9,2-2,2h-6c-1.1,0-2-0.9-2-2v-6C22.2,35.9,23.1,35,24.2,35z"/>
	<path class="st2" d="M39.2,35h6c1.1,0,2,0.9,2,2v6c0,1.1-0.9,2-2,2h-6c-1.1,0-2-0.9-2-2v-6C37.2,35.9,38.1,35,39.2,35z"/>
	<path class="st2" d="M54.2,35h6c1.1,0,2,0.9,2,2v6c0,1.1-0.9,2-2,2h-6c-1.1,0-2-0.9-2-2v-6C52.2,35.9,53.1,35,54.2,35z"/>
	<path class="st2" d="M24.2,48h6c1.1,0,2,0.9,2,2v6c0,1.1-0.9,2-2,2h-6c-1.1,0-2-0.9-2-2v-6C22.2,48.9,23.1,48,24.2,48z"/>
	<path class="st2" d="M39.2,48h6c1.1,0,2,0.9,2,2v6c0,1.1-0.9,2-2,2h-6c-1.1,0-2-0.9-2-2v-6C37.2,48.9,38.1,48,39.2,48z"/>
	<path class="st2" d="M54.2,48h6c1.1,0,2,0.9,2,2v6c0,1.1-0.9,2-2,2h-6c-1.1,0-2-0.9-2-2v-6C52.2,48.9,53.1,48,54.2,48z"/>
	<path class="st2" d="M24.2,61h6c1.1,0,2,0.9,2,2v6c0,1.1-0.9,2-2,2h-6c-1.1,0-2-0.9-2-2v-6C22.2,61.9,23.1,61,24.2,61z"/>
	<path class="st2" d="M39.2,61h6c1.1,0,2,0.9,2,2v6c0,1.1-0.9,2-2,2h-6c-1.1,0-2-0.9-2-2v-6C37.2,61.9,38.1,61,39.2,61z"/>
	<path class="st2" d="M54.2,61h6c1.1,0,2,0.9,2,2v6c0,1.1-0.9,2-2,2h-6c-1.1,0-2-0.9-2-2v-6C52.2,61.9,53.1,61,54.2,61z"/>
</g>
<ellipse class="st3" cx="25.8" cy="15" rx="4.4" ry="3.5"/>
<path class="st4" d="M24.8,5.1h2c1.7,0,3,1.3,3,3v6.8c0,1.7-1.3,3-3,3h-2c-1.7,0-3-1.3-3-3V8.1C21.8,6.4,23.1,5.1,24.8,5.1z"/>
<ellipse class="st3" cx="58.8" cy="15" rx="4.4" ry="3.5"/>
<path class="st4" d="M57.8,5.1h2c1.7,0,3,1.3,3,3v6.8c0,1.7-1.3,3-3,3h-2c-1.7,0-3-1.3-3-3V8.1C54.8,6.4,56.1,5.1,57.8,5.1z"/>
</svg>
