<?xml version="1.0" encoding="utf-8"?>
<!-- Generator: Adobe Illustrator 25.4.1, SVG Export Plug-In . SVG Version: 6.00 Build 0)  -->
<svg version="1.1" id="Layer_1" xmlns="http://www.w3.org/2000/svg" xmlns:xlink="http://www.w3.org/1999/xlink" x="0px" y="0px"
	 viewBox="0 0 84 84" style="enable-background:new 0 0 84 84;" xml:space="preserve">
<style type="text/css">
	.st0{fill:#78BE20;}
	.st1{fill:#FF4500;}
</style>
<polygon class="st0" points="16.3,53.9 65.6,53.9 76.8,76.6 5.1,76.6 "/>
<path class="st1" d="M41,8.5c-11.8,0-21.3,8.8-21.3,19.9c0,11,11.8,26.5,17.9,35.3c1.1,1.7,3.4,4.4,3.4,4.4s2.2-2.8,3.4-4.4
	c6.2-8.8,17.9-24.3,17.9-35.3C62.3,17.3,52.7,8.5,41,8.5z M41,39.2c-6.2,0-11.2-5.1-11.2-11.4c0-6.3,5-11.4,11.2-11.4
	c6.2,0,11.2,5.1,11.2,11.4C52.2,34.1,47.2,39.2,41,39.2z"/>
</svg>
